<svg width="1633" height="364" viewBox="0 0 1633 364" fill="none" xmlns="http://www.w3.org/2000/svg">
<path d="M471.092 48.3333C504.841 48.3333 530.582 56.4846 548.315 72.787C566.333 88.8035 575.343 113.114 575.343 145.719V280H524.719V252.114C518.141 262.125 508.703 269.847 496.404 275.281C484.392 280.429 469.805 283.003 452.645 283.003C435.484 283.003 420.469 280.143 407.599 274.423C394.728 268.417 384.718 260.265 377.568 249.969C370.704 239.387 367.271 227.518 367.271 214.361C367.271 193.769 374.851 177.323 390.009 165.025C405.454 152.44 429.621 146.148 462.512 146.148H521.716V142.716C521.716 126.7 516.854 114.401 507.13 105.821C497.691 97.2407 483.534 92.9506 464.657 92.9506C451.787 92.9506 439.06 94.9527 426.475 98.9568C414.177 102.961 403.738 108.538 395.157 115.688L374.136 76.6481C386.148 67.4959 400.591 60.4887 417.466 55.6265C434.34 50.7644 452.216 48.3333 471.092 48.3333ZM463.799 243.963C477.242 243.963 489.111 240.96 499.407 234.954C509.99 228.662 517.426 219.795 521.716 208.355V181.756H466.373C435.484 181.756 420.04 191.909 420.04 212.216C420.04 221.94 423.901 229.663 431.623 235.383C439.346 241.103 450.071 243.963 463.799 243.963Z" fill="black"/>
<path d="M771.153 48.3333C793.462 48.3333 813.339 53.1955 830.786 62.9197C848.518 72.644 862.39 86.3724 872.4 104.105C882.41 121.837 887.416 142.287 887.416 165.454C887.416 188.62 882.41 209.213 872.4 227.232C862.39 244.964 848.518 258.692 830.786 268.417C813.339 278.141 793.462 283.003 771.153 283.003C740.264 283.003 715.811 272.707 697.792 252.114V363.228H644.165V50.9074H695.218V80.9383C704.084 70.07 714.953 61.9187 727.823 56.4846C740.979 51.0504 755.423 48.3333 771.153 48.3333ZM765.147 237.099C784.882 237.099 801.041 230.521 813.625 217.364C826.496 204.208 832.931 186.904 832.931 165.454C832.931 144.003 826.496 126.7 813.625 113.543C801.041 100.387 784.882 93.8086 765.147 93.8086C752.277 93.8086 740.693 96.8117 730.397 102.818C720.101 108.538 711.949 116.832 705.943 127.701C699.937 138.569 696.934 151.153 696.934 165.454C696.934 179.754 699.937 192.339 705.943 203.207C711.949 214.075 720.101 222.512 730.397 228.519C740.693 234.239 752.277 237.099 765.147 237.099Z" fill="black"/>
<path d="M1075.99 267.559C1069.69 272.707 1061.97 276.568 1052.82 279.142C1043.95 281.716 1034.52 283.003 1024.51 283.003C999.336 283.003 979.888 276.425 966.159 263.269C952.431 250.112 945.567 230.95 945.567 205.781V95.5247H907.814V52.6234H945.567V0.283936H999.193V52.6234H1060.54V95.5247H999.193V204.494C999.193 215.648 1001.91 224.228 1007.34 230.235C1012.78 235.955 1020.64 238.815 1030.94 238.815C1042.95 238.815 1052.96 235.669 1060.97 229.377L1075.99 267.559Z" fill="black"/>
<path d="M1215.52 283.003C1192.36 283.003 1171.48 277.998 1152.89 267.988C1134.3 257.977 1119.71 244.106 1109.13 226.373C1098.83 208.355 1093.68 188.048 1093.68 165.454C1093.68 142.859 1098.83 122.695 1109.13 104.963C1119.71 87.2304 1134.3 73.359 1152.89 63.3488C1171.48 53.3385 1192.36 48.3333 1215.52 48.3333C1238.98 48.3333 1260 53.3385 1278.59 63.3488C1297.18 73.359 1311.62 87.2304 1321.92 104.963C1332.5 122.695 1337.79 142.859 1337.79 165.454C1337.79 188.048 1332.5 208.355 1321.92 226.373C1311.62 244.106 1297.18 257.977 1278.59 267.988C1260 277.998 1238.98 283.003 1215.52 283.003ZM1215.52 237.099C1235.26 237.099 1251.56 230.521 1264.43 217.364C1277.3 204.208 1283.74 186.904 1283.74 165.454C1283.74 144.003 1277.3 126.7 1264.43 113.543C1251.56 100.387 1235.26 93.8086 1215.52 93.8086C1195.79 93.8086 1179.49 100.387 1166.62 113.543C1154.03 126.7 1147.74 144.003 1147.74 165.454C1147.74 186.904 1154.03 204.208 1166.62 217.364C1179.49 230.521 1195.79 237.099 1215.52 237.099Z" fill="black"/>
<path d="M1516.06 48.3333C1538.37 48.3333 1558.25 53.1955 1575.69 62.9197C1593.42 72.644 1607.3 86.3724 1617.31 104.105C1627.32 121.837 1632.32 142.287 1632.32 165.454C1632.32 188.62 1627.32 209.213 1617.31 227.232C1607.3 244.964 1593.42 258.692 1575.69 268.417C1558.25 278.141 1538.37 283.003 1516.06 283.003C1485.17 283.003 1460.72 272.707 1442.7 252.114V363.228H1389.07V50.9074H1440.12V80.9383C1448.99 70.07 1459.86 61.9187 1472.73 56.4846C1485.89 51.0504 1500.33 48.3333 1516.06 48.3333ZM1510.05 237.099C1529.79 237.099 1545.95 230.521 1558.53 217.364C1571.4 204.208 1577.84 186.904 1577.84 165.454C1577.84 144.003 1571.4 126.7 1558.53 113.543C1545.95 100.387 1529.79 93.8086 1510.05 93.8086C1497.18 93.8086 1485.6 96.8117 1475.3 102.818C1465.01 108.538 1456.86 116.832 1450.85 127.701C1444.84 138.569 1441.84 151.153 1441.84 165.454C1441.84 179.754 1444.84 192.339 1450.85 203.207C1456.86 214.075 1465.01 222.512 1475.3 228.519C1485.6 234.239 1497.18 237.099 1510.05 237.099Z" fill="black"/>
<path d="M0.416016 69.6913L36.1876 29.6913L186.188 232.809H343.206V280H152.416L0.416016 69.6913Z" fill="black"/>
</svg>
