<svg width="1483" height="322" viewBox="0 0 1483 322" fill="none" xmlns="http://www.w3.org/2000/svg">
<path d="M117.568 312.574C95.2597 312.574 75.2391 307.283 57.5066 296.701C40.0601 286.118 26.1887 271.818 15.8924 253.799C5.8821 235.781 0.876953 215.474 0.876953 192.88C0.876953 169.999 5.59609 149.549 15.0344 131.531C24.4726 113.512 37.486 99.3549 54.0745 89.0586C70.663 78.4762 89.6825 73.1851 111.133 73.1851C129.438 73.1851 146.169 76.7602 161.328 83.9104C176.486 90.7746 189.642 101.357 200.797 115.657C203.085 118.517 203.943 121.521 203.371 124.667C202.799 127.813 200.94 130.387 197.794 132.389C195.22 134.391 192.36 135.249 189.213 134.963C186.067 134.391 183.35 132.675 181.062 129.815C162.758 108.078 139.448 97.2098 111.133 97.2098C94.2587 97.2098 79.3862 101.357 66.5159 109.651C53.9315 117.945 44.0642 129.243 36.914 143.543C30.0498 157.844 26.6177 174.289 26.6177 192.88C26.6177 210.898 30.4788 227.201 38.201 241.787C45.9233 256.087 56.5056 267.528 69.948 276.108C83.6764 284.402 99.5498 288.549 117.568 288.549C129.295 288.549 140.306 286.833 150.602 283.401C161.185 279.969 170.337 274.678 178.059 267.528C180.633 265.24 183.493 263.953 186.639 263.667C189.785 263.381 192.503 264.382 194.791 266.67C197.651 269.244 199.081 272.247 199.081 275.679C199.367 278.825 198.223 281.542 195.649 283.83C174.77 302.993 148.743 312.574 117.568 312.574Z" fill="black"/>
<path d="M392.468 312.574C369.587 312.574 348.995 307.426 330.69 297.13C312.672 286.547 298.371 272.247 287.789 254.228C277.493 235.924 272.345 215.474 272.345 192.88C272.345 169.999 277.493 149.549 287.789 131.531C298.371 113.226 312.672 98.9258 330.69 88.6295C348.995 78.0472 369.587 72.7561 392.468 72.7561C415.349 72.7561 435.798 78.0472 453.817 88.6295C471.835 98.9258 485.993 113.226 496.289 131.531C506.871 149.549 512.163 169.999 512.163 192.88L501.437 210.04C501.437 229.489 496.575 246.935 486.851 262.38C477.413 277.824 464.542 290.122 448.24 299.275C431.937 308.141 413.347 312.574 392.468 312.574ZM392.468 288.549C410.487 288.549 426.503 284.402 440.518 276.108C454.818 267.528 465.972 256.087 473.98 241.787C482.275 227.201 486.422 210.898 486.422 192.88C486.422 174.575 482.275 158.273 473.98 143.972C465.972 129.386 454.818 117.945 440.518 109.651C426.503 101.071 410.487 96.7808 392.468 96.7808C374.736 96.7808 358.719 101.071 344.419 109.651C330.118 117.945 318.821 129.386 310.527 143.972C302.232 158.273 298.085 174.575 298.085 192.88C298.085 210.898 302.232 227.201 310.527 241.787C318.821 256.087 330.118 267.528 344.419 276.108C358.719 284.402 374.736 288.549 392.468 288.549ZM499.292 310C495.574 310 492.428 308.856 489.854 306.568C487.566 303.994 486.422 300.848 486.422 297.13V218.62L494.573 192.88H512.163V297.13C512.163 300.848 511.019 303.994 508.73 306.568C506.442 308.856 503.296 310 499.292 310Z" fill="black"/>
<path d="M602.131 166.71C603.847 148.405 608.852 132.246 617.147 118.231C625.441 103.931 636.166 92.7767 649.323 84.7684C662.479 76.7602 677.065 72.7561 693.082 72.7561C703.95 72.7561 712.387 74.0431 718.394 76.6172C724.4 79.1913 726.688 83.7674 725.258 90.3456C724.4 94.6357 722.398 97.2098 719.252 98.0678C716.105 98.9258 712.244 99.0689 707.668 98.4968C703.378 97.6388 698.516 97.2098 693.082 97.2098C678.781 97.2098 666.054 100.213 654.9 106.219C643.745 112.225 635.022 120.519 628.73 131.102C622.438 141.398 619.292 153.267 619.292 166.71H602.131ZM606.421 310C602.703 310 599.557 308.856 596.983 306.568C594.695 303.994 593.551 300.848 593.551 297.13V88.2005C593.551 84.1964 594.695 81.0503 596.983 78.7623C599.557 76.4742 602.703 75.3302 606.421 75.3302C610.425 75.3302 613.571 76.4742 615.86 78.7623C618.148 81.0503 619.292 84.1964 619.292 88.2005V297.13C619.292 300.848 618.148 303.994 615.86 306.568C613.571 308.856 610.425 310 606.421 310Z" fill="black"/>
<path d="M1188.34 312.145C1165.75 312.145 1145.58 307.14 1127.85 297.13C1110.4 286.833 1096.67 272.676 1086.66 254.657C1076.65 236.639 1071.65 216.046 1071.65 192.88C1071.65 169.427 1076.37 148.834 1085.81 131.102C1095.24 113.083 1108.26 98.9258 1124.85 88.6295C1141.43 78.3332 1160.45 73.1851 1181.9 73.1851C1203.07 73.1851 1221.8 78.1902 1238.11 88.2005C1254.41 97.9248 1267.14 111.51 1276.29 128.957C1285.44 146.117 1290.02 165.995 1290.02 188.589C1290.02 192.308 1288.87 195.311 1286.58 197.599C1284.3 199.601 1281.29 200.602 1277.57 200.602H1088.81V178.293H1284.44L1265.56 192.451C1266.13 173.86 1262.99 157.415 1256.12 143.114C1249.26 128.814 1239.39 117.659 1226.52 109.651C1213.94 101.357 1199.07 97.2098 1181.9 97.2098C1165.6 97.2098 1151.02 101.357 1138.15 109.651C1125.56 117.659 1115.55 128.814 1108.11 143.114C1100.96 157.415 1097.39 174.003 1097.39 192.88C1097.39 211.47 1101.25 227.916 1108.97 242.216C1116.69 256.516 1127.42 267.814 1141.15 276.108C1154.88 284.116 1170.61 288.12 1188.34 288.12C1199.49 288.12 1210.65 286.261 1221.8 282.543C1233.24 278.539 1242.25 273.391 1248.83 267.099C1251.12 264.811 1253.84 263.667 1256.98 263.667C1260.41 263.381 1263.27 264.239 1265.56 266.241C1268.71 268.815 1270.28 271.675 1270.28 274.821C1270.57 277.967 1269.28 280.827 1266.42 283.401C1257.27 291.695 1245.26 298.56 1230.38 303.994C1215.8 309.428 1201.78 312.145 1188.34 312.145Z" fill="black"/>
<path d="M1459.21 310C1443.48 309.714 1429.46 306.139 1417.16 299.275C1404.87 292.124 1395.28 282.4 1388.42 270.102C1381.56 257.517 1378.12 243.36 1378.12 227.63V13.9814C1378.12 9.97726 1379.27 6.83117 1381.56 4.54312C1384.13 1.96904 1387.28 0.682007 1390.99 0.682007C1395 0.682007 1398.14 1.96904 1400.43 4.54312C1403.01 6.83117 1404.29 9.97726 1404.29 13.9814V227.63C1404.29 244.218 1409.44 257.803 1419.74 268.386C1430.03 278.682 1443.33 283.83 1459.64 283.83H1469.07C1473.08 283.83 1476.22 285.117 1478.51 287.691C1481.09 289.979 1482.37 293.125 1482.37 297.13C1482.37 300.848 1481.09 303.994 1478.51 306.568C1476.22 308.856 1473.08 310 1469.07 310H1459.21ZM1344.66 107.077C1341.23 107.077 1338.37 106.076 1336.08 104.074C1334.08 101.786 1333.08 98.9258 1333.08 95.4938C1333.08 92.0617 1334.08 89.3446 1336.08 87.3425C1338.37 85.0544 1341.23 83.9104 1344.66 83.9104H1460.92C1464.36 83.9104 1467.07 85.0544 1469.07 87.3425C1471.36 89.3446 1472.51 92.0617 1472.51 95.4938C1472.51 98.9258 1471.36 101.786 1469.07 104.074C1467.07 106.076 1464.36 107.077 1460.92 107.077H1344.66Z" fill="black"/>
<path d="M1066.53 308.433C1066.53 312.079 1065.27 315.164 1062.74 317.687C1060.5 319.931 1057.56 321.053 1053.91 321.053H850.739C828.585 320.492 808.955 315.164 791.849 305.068C774.462 294.692 760.721 280.671 750.626 263.003C740.53 245.336 735.482 225.566 735.482 203.692C735.482 181.258 740.67 161.207 751.046 143.54C761.142 125.592 775.163 111.571 793.111 101.475C810.778 91.0995 830.829 85.9115 853.263 85.9115C875.417 85.9115 895.468 91.0995 913.416 101.475C931.083 111.571 945.104 125.592 955.48 143.54C965.576 161.207 970.624 181.258 970.624 203.692C970.624 223.883 966.277 242.111 957.583 258.376C948.89 274.361 937.252 286.84 922.67 295.814H1053.91C1057.56 295.814 1060.5 296.936 1062.74 299.179C1065.27 301.422 1066.53 304.507 1066.53 308.433ZM947.067 203.692C947.067 186.025 943.001 170.321 934.869 156.58C926.456 142.558 915.238 131.481 901.217 123.349C886.915 115.217 870.93 111.15 853.263 111.15C835.316 111.15 819.331 115.217 805.31 123.349C791.008 131.481 779.79 142.558 771.658 156.58C763.245 170.321 759.039 186.025 759.039 203.692C759.039 221.079 763.245 236.783 771.658 250.805C779.79 264.826 791.008 275.903 805.31 284.036C819.331 291.888 835.316 295.814 853.263 295.814C870.93 295.814 886.915 291.888 901.217 284.036C915.238 275.903 926.456 264.826 934.869 250.805C943.001 236.783 947.067 221.079 947.067 203.692Z" fill="black"/>
</svg>
