<svg width="1907" height="339" viewBox="0 0 1907 339" fill="none" xmlns="http://www.w3.org/2000/svg">
<path d="M588.751 338.39C574.48 338.39 561.599 335.61 550.108 330.05C538.617 324.49 528.701 316.983 520.361 307.531C512.02 297.893 505.533 287.144 500.9 275.282C496.452 263.235 494.228 250.91 494.228 238.306C494.228 225.147 496.637 212.637 501.456 200.775C506.275 188.728 512.947 178.071 521.473 168.804C529.998 159.352 540.007 151.938 551.498 146.563C563.174 141.003 575.777 138.223 589.307 138.223C603.393 138.223 616.181 141.096 627.672 146.841C639.349 152.587 649.265 160.278 657.419 169.916C665.76 179.554 672.154 190.303 676.602 202.165C681.236 214.027 683.552 226.167 683.552 238.584C683.552 251.744 681.143 264.347 676.324 276.394C671.691 288.256 665.111 298.913 656.586 308.365C648.06 317.632 637.959 324.953 626.282 330.328C614.791 335.703 602.281 338.39 588.751 338.39ZM525.921 238.306C525.921 247.573 527.404 256.562 530.369 265.273C533.334 273.984 537.505 281.769 542.879 288.626C548.44 295.298 555.112 300.581 562.896 304.473C570.68 308.365 579.391 310.311 589.029 310.311C599.037 310.311 607.934 308.272 615.718 304.195C623.502 300.117 629.989 294.65 635.179 287.792C640.554 280.749 644.631 272.965 647.411 264.439C650.191 255.728 651.581 247.017 651.581 238.306C651.581 229.039 650.099 220.143 647.133 211.617C644.353 202.906 640.183 195.215 634.623 188.543C629.062 181.685 622.39 176.31 614.606 172.418C607.007 168.526 598.481 166.58 589.029 166.58C579.021 166.58 570.124 168.619 562.34 172.696C554.556 176.774 547.976 182.241 542.601 189.099C537.227 195.956 533.056 203.648 530.091 212.173C527.311 220.699 525.921 229.41 525.921 238.306Z" fill="black"/>
<path d="M798.08 338.39C782.326 338.39 768.981 335.703 758.046 330.328C747.296 324.953 738.585 317.632 731.913 308.365C725.426 299.098 720.607 288.534 717.457 276.672C714.491 264.81 713.008 252.485 713.008 239.696V139.613H744.146V239.696C744.146 248.778 745.072 257.582 746.926 266.107C748.779 274.448 751.745 281.954 755.822 288.626C759.9 295.298 765.367 300.581 772.225 304.473C779.268 308.365 787.886 310.311 798.08 310.311C808.459 310.311 817.077 308.365 823.934 304.473C830.977 300.395 836.445 295.02 840.337 288.348C844.415 281.491 847.38 273.892 849.233 265.551C851.087 257.211 852.013 248.593 852.013 239.696V139.613H883.429V239.696C883.429 253.226 881.761 266.015 878.424 278.062C875.274 289.924 870.269 300.395 863.412 309.477C856.74 318.373 848.029 325.416 837.279 330.606C826.529 335.795 813.463 338.39 798.08 338.39Z" fill="black"/>
<path d="M955.976 197.439V337H924.839V139.613H950.416L1062.18 282.232V139.891H1093.59V337H1066.35L955.976 197.439Z" fill="black"/>
<path d="M1282.81 167.136H1217.19V337H1185.78V167.136H1119.89V139.613H1282.81V167.136Z" fill="black"/>
<path d="M1347.81 139.613H1377.27L1454.01 337H1421.2L1400.35 283.344H1324.17L1303.6 337H1270.52L1347.81 139.613ZM1394.23 260.269L1362.54 173.808L1329.73 260.269H1394.23Z" fill="black"/>
<path d="M1478.42 337V139.613H1509.55V337H1478.42Z" fill="black"/>
<path d="M1585.3 197.439V337H1554.16V139.613H1579.74L1691.5 282.232V139.891H1722.91V337H1695.67L1585.3 197.439Z" fill="black"/>
<path d="M1884.05 186.041C1882.2 184.002 1879.51 181.87 1875.99 179.646C1872.47 177.237 1868.3 175.013 1863.48 172.974C1858.66 170.935 1853.47 169.267 1847.91 167.97C1842.35 166.673 1836.6 166.024 1830.67 166.024C1817.7 166.024 1808.06 168.433 1801.76 173.252C1795.46 178.071 1792.31 184.743 1792.31 193.269C1792.31 199.57 1794.07 204.575 1797.59 208.281C1801.11 211.803 1806.48 214.768 1813.71 217.178C1820.94 219.587 1830.02 222.182 1840.96 224.962C1854.3 228.113 1865.89 231.912 1875.71 236.36C1885.53 240.623 1893.04 246.369 1898.23 253.597C1903.42 260.825 1906.01 270.37 1906.01 282.232C1906.01 292.24 1904.16 300.859 1900.45 308.087C1896.75 315.315 1891.56 321.246 1884.88 325.88C1878.21 330.328 1870.52 333.664 1861.81 335.888C1853.1 337.927 1843.74 338.946 1833.73 338.946C1823.91 338.946 1814.08 337.927 1804.26 335.888C1794.62 333.849 1785.36 330.884 1776.46 326.992C1767.75 322.914 1759.69 318.003 1752.27 312.257L1766.45 285.568C1768.86 287.978 1772.29 290.665 1776.74 293.63C1781.37 296.411 1786.65 299.098 1792.58 301.693C1798.7 304.287 1805.28 306.512 1812.32 308.365C1819.55 310.033 1826.87 310.867 1834.29 310.867C1846.7 310.867 1856.16 308.736 1862.64 304.473C1869.32 300.025 1872.65 293.723 1872.65 285.568C1872.65 278.896 1870.52 273.614 1866.26 269.722C1861.99 265.644 1855.79 262.215 1847.63 259.435C1839.48 256.655 1829.75 253.875 1818.44 251.095C1805.47 247.573 1794.62 243.774 1785.91 239.696C1777.2 235.434 1770.62 230.059 1766.17 223.572C1761.91 216.9 1759.78 208.467 1759.78 198.273C1759.78 185.299 1762.93 174.364 1769.23 165.468C1775.53 156.386 1784.06 149.621 1794.81 145.173C1805.74 140.54 1817.98 138.223 1831.51 138.223C1840.4 138.223 1848.84 139.242 1856.8 141.281C1864.77 143.134 1872.19 145.729 1879.05 149.065C1886.09 152.401 1892.48 156.201 1898.23 160.464L1884.05 186.041Z" fill="black"/>
<path d="M319.68 331.35H288.66L241.66 212.91L194.19 331.35H162.7L220.98 188.94L157.06 38.07L36.2699 333.7H0.549927L142.02 0H171.16L241.19 164.97L311.69 0H340.36L481.36 333.7H446.11L324.85 38.07L261.4 188.94L319.68 331.35Z" fill="black"/>
</svg>
