<svg width="855" height="202" viewBox="0 0 855 202" fill="none" xmlns="http://www.w3.org/2000/svg">
<path d="M95.3528 202H1.93579C1.18319 202 0.806885 201.53 0.806885 200.589L1.08911 2.04248C1.08911 1.28988 1.46541 0.913574 2.21802 0.913574H95.0706C95.8232 0.913574 96.1995 1.38395 96.1995 2.32471V34.6396C96.1995 35.3923 95.8232 35.7686 95.0706 35.7686H35.803V80.9248H95.0706C95.8232 80.9248 96.1995 81.3011 96.1995 82.0537L96.4817 114.792C96.4817 115.545 96.1054 115.921 95.3528 115.921H35.803V166.439H95.3528C96.1054 166.439 96.4817 166.91 96.4817 167.851V200.871C96.4817 201.624 96.1054 202 95.3528 202Z" fill="black"/>
<path d="M277.903 202H248.974C247.469 202 246.717 201.341 246.717 200.024L246.434 3.17139C246.434 1.66618 247.187 0.913574 248.692 0.913574H274.798L323.623 114.792L322.212 3.17139C322.212 1.66618 323.059 0.913574 324.752 0.913574H353.398C354.527 0.913574 355.092 1.66618 355.092 3.17139L355.374 200.307C355.374 201.436 354.903 202 353.963 202H328.562L278.467 95.6006L280.584 199.742C280.584 201.247 279.69 202 277.903 202Z" fill="black"/>
<path d="M572.214 202H537.218C536.371 202 535.901 201.53 535.807 200.589L495.872 2.04248C495.684 1.28988 496.06 0.913574 497.001 0.913574H529.739C530.492 0.913574 530.962 1.28988 531.15 2.04248L554.857 134.407L578 2.04248C578.188 1.28988 578.658 0.913574 579.411 0.913574H611.726C612.761 0.913574 613.137 1.28988 612.855 2.04248L573.625 200.589C573.531 201.53 573.061 202 572.214 202Z" fill="black"/>
<path d="M814.314 202H781.152C780.494 202 780.164 201.624 780.164 200.871L780.447 118.743L741.781 2.04248C741.593 1.28988 741.876 0.913574 742.628 0.913574H774.802C775.743 0.913574 776.307 1.28988 776.495 2.04248L797.803 79.7959L819.535 2.04248C819.723 1.28988 820.193 0.913574 820.946 0.913574H853.402C854.155 0.913574 854.437 1.28988 854.249 2.04248L815.16 117.614L815.443 200.871C815.443 201.624 815.066 202 814.314 202Z" fill="black"/>
</svg>
