<svg width="753" height="124" viewBox="0 0 753 124" fill="none" xmlns="http://www.w3.org/2000/svg">
<g clip-path="url(#clip0_1364_83)">
<path d="M62 0C27.8148 0 0 27.8148 0 62C0 96.1852 27.8148 124 62 124C96.1852 124 124 96.1852 124 62C124 27.8148 96.1852 0 62 0ZM62 9.53846C89.3374 9.53846 110.986 30.5654 113.502 57.2308H73.5132L88.976 41.768L82.232 35.024L66.7692 50.4868V28.6154H57.2308V50.4868L41.768 35.024L35.024 41.768L50.4868 57.2308H28.6154V66.7692H50.4868L35.024 82.232L41.768 88.976L57.2308 73.5132V95.3846H66.7692V73.5132L82.232 88.976L88.976 82.232L73.5132 66.7692H113.502C110.986 93.4346 89.3374 114.462 62 114.462C32.9698 114.462 9.53846 91.0302 9.53846 62C9.53846 32.9698 32.9698 9.53846 62 9.53846Z" fill="white"/>
</g>
<path d="M152.903 88V36.4295H174.408C178.269 36.4295 181.5 36.9751 184.102 38.0663C186.721 39.1575 188.685 40.6851 189.994 42.6492C191.321 44.6133 191.984 46.888 191.984 49.4732C191.984 51.4373 191.573 53.1916 190.75 54.736C189.927 56.2637 188.794 57.5311 187.351 58.5384C185.907 59.5456 184.236 60.2507 182.34 60.6535V61.1572C184.421 61.2579 186.343 61.8203 188.106 62.8443C189.885 63.8683 191.312 65.2952 192.387 67.125C193.461 68.9381 193.998 71.0868 193.998 73.5713C193.998 76.3412 193.293 78.8174 191.883 80.9997C190.473 83.1653 188.433 84.8776 185.764 86.1366C183.095 87.3789 179.855 88 176.044 88H152.903ZM165.368 77.9528H173.073C175.776 77.9528 177.765 77.4408 179.041 76.4168C180.333 75.3928 180.98 73.9658 180.98 72.136C180.98 70.8098 180.669 69.6683 180.048 68.7114C179.427 67.7378 178.546 66.9907 177.404 66.4703C176.263 65.9331 174.894 65.6645 173.3 65.6645H165.368V77.9528ZM165.368 57.6318H172.267C173.627 57.6318 174.836 57.4052 175.893 56.952C176.951 56.4987 177.773 55.844 178.361 54.9878C178.965 54.1317 179.267 53.0993 179.267 51.8906C179.267 50.1615 178.655 48.8017 177.429 47.8113C176.204 46.8208 174.55 46.3256 172.469 46.3256H165.368V57.6318ZM221.4 71.3051V49.3221H233.688V88H221.954V80.7983H221.551C220.695 83.1653 219.235 85.0454 217.17 86.4388C215.122 87.8153 212.646 88.5036 209.741 88.5036C207.106 88.5036 204.789 87.8993 202.791 86.6906C200.794 85.4819 199.241 83.7948 198.133 81.6292C197.025 79.4469 196.463 76.8952 196.446 73.9742V49.3221H208.759V71.5569C208.776 73.6553 209.33 75.3088 210.421 76.5175C211.512 77.7262 212.998 78.3305 214.878 78.3305C216.104 78.3305 217.203 78.0619 218.177 77.5247C219.167 76.9708 219.948 76.1734 220.519 75.1326C221.106 74.075 221.4 72.7991 221.4 71.3051ZM237.98 88V49.3221H250.294V88H237.98ZM244.15 44.8148C242.421 44.8148 240.935 44.244 239.693 43.1025C238.451 41.9441 237.829 40.5508 237.829 38.9224C237.829 37.3109 238.451 35.9343 239.693 34.7928C240.935 33.6344 242.421 33.0553 244.15 33.0553C245.896 33.0553 247.381 33.6344 248.607 34.7928C249.849 35.9343 250.47 37.3109 250.47 38.9224C250.47 40.5508 249.849 41.9441 248.607 43.1025C247.381 44.244 245.896 44.8148 244.15 44.8148ZM266.899 36.4295V88H254.586V36.4295H266.899ZM293.023 49.3221V58.3873H268.623V49.3221H293.023ZM273.735 40.0556H286.048V75.8376C286.048 76.5931 286.166 77.2058 286.401 77.6758C286.653 78.1291 287.014 78.4564 287.484 78.6579C287.954 78.8425 288.516 78.9349 289.171 78.9349C289.641 78.9349 290.136 78.8929 290.656 78.809C291.194 78.7082 291.596 78.6243 291.865 78.5572L293.728 87.446C293.141 87.6139 292.31 87.8237 291.236 88.0755C290.178 88.3274 288.911 88.4868 287.433 88.554C284.546 88.6883 282.07 88.3525 280.005 87.5467C277.957 86.7242 276.387 85.4483 275.296 83.7192C274.222 81.9902 273.701 79.8162 273.735 77.1974V40.0556ZM318.605 88H305.208L322.608 36.4295H339.203L356.603 88H343.206L331.094 49.4229H330.691L318.605 88ZM316.817 67.7042H344.818V77.1722H316.817V67.7042ZM378.018 49.3221V58.3873H353.617V49.3221H378.018ZM358.729 40.0556H371.043V75.8376C371.043 76.5931 371.16 77.2058 371.395 77.6758C371.647 78.1291 372.008 78.4564 372.478 78.6579C372.948 78.8425 373.51 78.9349 374.165 78.9349C374.635 78.9349 375.13 78.8929 375.651 78.809C376.188 78.7082 376.591 78.6243 376.859 78.5572L378.723 87.446C378.135 87.6139 377.304 87.8237 376.23 88.0755C375.172 88.3274 373.905 88.4868 372.428 88.554C369.54 88.6883 367.064 88.3525 364.999 87.5467C362.951 86.7242 361.382 85.4483 360.29 83.7192C359.216 81.9902 358.696 79.8162 358.729 77.1974V40.0556ZM392.444 88V36.4295H404.908V77.8773H426.363V88H392.444ZM429.27 88V49.3221H441.583V88H429.27ZM435.439 44.8148C433.71 44.8148 432.224 44.244 430.982 43.1025C429.74 41.9441 429.119 40.5508 429.119 38.9224C429.119 37.3109 429.74 35.9343 430.982 34.7928C432.224 33.6344 433.71 33.0553 435.439 33.0553C437.185 33.0553 438.671 33.6344 439.896 34.7928C441.138 35.9343 441.759 37.3109 441.759 38.9224C441.759 40.5508 441.138 41.9441 439.896 43.1025C438.671 44.244 437.185 44.8148 435.439 44.8148ZM463.905 103.31C460.228 103.31 457.081 102.798 454.462 101.774C451.843 100.75 449.787 99.3482 448.293 97.5687C446.799 95.7893 445.9 93.7748 445.598 91.5253L457.257 90.8706C457.475 91.6596 457.878 92.3479 458.466 92.9355C459.07 93.523 459.851 93.9763 460.807 94.2952C461.781 94.6142 462.923 94.7737 464.232 94.7737C466.297 94.7737 468.001 94.27 469.344 93.2628C470.704 92.2724 471.383 90.5349 471.383 88.0504V81.2515H470.955C470.469 82.4434 469.73 83.5094 468.739 84.4495C467.749 85.3896 466.515 86.1282 465.038 86.6654C463.577 87.2026 461.899 87.4712 460.002 87.4712C457.181 87.4712 454.596 86.8165 452.246 85.5071C449.913 84.1809 448.041 82.1329 446.631 79.363C445.237 76.5763 444.541 72.9922 444.541 68.6107C444.541 64.0949 445.262 60.3766 446.706 57.4556C448.15 54.5178 450.038 52.3439 452.372 50.9337C454.722 49.5236 457.249 48.8185 459.951 48.8185C461.983 48.8185 463.72 49.1711 465.164 49.8761C466.624 50.5644 467.825 51.4541 468.765 52.5453C469.705 53.6365 470.418 54.7696 470.905 55.9447H471.258V49.3221H483.521V88.1511C483.521 91.4246 482.698 94.1861 481.053 96.4356C479.408 98.6851 477.108 100.389 474.153 101.547C471.199 102.722 467.783 103.31 463.905 103.31ZM464.282 78.5068C465.777 78.5068 467.052 78.1123 468.11 77.3233C469.168 76.5343 469.982 75.4012 470.552 73.9239C471.123 72.4466 471.409 70.6755 471.409 68.6107C471.409 66.5123 471.123 64.7077 470.552 63.1968C469.999 61.6692 469.184 60.4941 468.11 59.6715C467.052 58.8489 465.777 58.4376 464.282 58.4376C462.755 58.4376 461.462 58.8573 460.405 59.6967C459.347 60.536 458.541 61.7195 457.987 63.2472C457.45 64.758 457.181 66.5459 457.181 68.6107C457.181 70.6755 457.458 72.4466 458.012 73.9239C458.566 75.4012 459.364 76.5343 460.405 77.3233C461.462 78.1123 462.755 78.5068 464.282 78.5068ZM500.139 65.9415V88H487.825V36.4295H499.736V56.4232H500.164C501.037 54.0394 502.464 52.176 504.445 50.833C506.442 49.49 508.885 48.8185 511.772 48.8185C514.492 48.8185 516.859 49.4229 518.873 50.6316C520.888 51.8234 522.449 53.5106 523.557 55.6929C524.682 57.8753 525.236 60.4269 525.219 63.3479V88H512.905V65.7653C512.922 63.6165 512.385 61.9378 511.294 60.7291C510.203 59.5204 508.667 58.9161 506.686 58.9161C505.393 58.9161 504.252 59.2014 503.261 59.7722C502.288 60.3262 501.524 61.1236 500.97 62.1644C500.433 63.2052 500.156 64.4643 500.139 65.9415ZM551.192 49.3221V58.3873H526.791V49.3221H551.192ZM531.903 40.0556H544.217V75.8376C544.217 76.5931 544.334 77.2058 544.569 77.6758C544.821 78.1291 545.182 78.4564 545.652 78.6579C546.122 78.8425 546.684 78.9349 547.339 78.9349C547.809 78.9349 548.304 78.8929 548.825 78.809C549.362 78.7082 549.765 78.6243 550.033 78.5572L551.897 87.446C551.309 87.6139 550.478 87.8237 549.404 88.0755C548.346 88.3274 547.079 88.4868 545.602 88.554C542.714 88.6883 540.238 88.3525 538.173 87.5467C536.125 86.7242 534.556 85.4483 533.464 83.7192C532.39 81.9902 531.87 79.8162 531.903 77.1974V40.0556ZM587.212 61.132L575.906 61.4342C575.788 60.6284 575.469 59.9149 574.949 59.2938C574.428 58.6559 573.748 58.1606 572.909 57.8081C572.086 57.4388 571.13 57.2541 570.038 57.2541C568.611 57.2541 567.394 57.5395 566.387 58.1103C565.397 58.681 564.91 59.4533 564.927 60.4269C564.91 61.1823 565.212 61.837 565.833 62.391C566.471 62.945 567.604 63.3899 569.233 63.7256L576.686 65.1357C580.547 65.8744 583.418 67.0999 585.298 68.8122C587.195 70.5245 588.152 72.7907 588.169 75.611C588.152 78.2634 587.363 80.5716 585.802 82.5357C584.257 84.4999 582.142 86.0275 579.456 87.1187C576.77 88.1931 573.698 88.7302 570.24 88.7302C564.717 88.7302 560.361 87.5971 557.171 85.3308C553.998 83.0478 552.185 79.9925 551.732 76.165L563.894 75.8628C564.163 77.2729 564.86 78.3473 565.984 79.086C567.109 79.8246 568.544 80.1939 570.29 80.1939C571.868 80.1939 573.152 79.9001 574.143 79.3126C575.133 78.725 575.637 77.9444 575.654 76.9708C575.637 76.0978 575.251 75.4012 574.495 74.8808C573.74 74.3436 572.557 73.9239 570.945 73.6217L564.196 72.3375C560.319 71.6324 557.431 70.3314 555.534 68.4344C553.637 66.5207 552.697 64.0865 552.714 61.132C552.697 58.5467 553.385 56.3392 554.779 54.5094C556.172 52.6628 558.153 51.2527 560.721 50.279C563.29 49.3054 566.32 48.8185 569.812 48.8185C575.049 48.8185 579.179 49.9181 582.201 52.1172C585.222 54.2996 586.893 57.3045 587.212 61.132ZM590.685 102.504V49.3221H602.873V55.9447H603.251C603.754 54.7696 604.468 53.6365 605.391 52.5453C606.331 51.4541 607.523 50.5644 608.967 49.8761C610.427 49.1711 612.173 48.8185 614.204 48.8185C616.89 48.8185 619.4 49.5236 621.734 50.9337C624.084 52.3439 625.981 54.5178 627.424 57.4556C628.868 60.3933 629.59 64.1369 629.59 68.6863C629.59 73.0677 628.893 76.7357 627.5 79.6903C626.123 82.6449 624.26 84.8608 621.91 86.3381C619.576 87.8153 616.983 88.554 614.129 88.554C612.182 88.554 610.494 88.235 609.068 87.5971C607.641 86.9592 606.44 86.1198 605.467 85.079C604.51 84.0382 603.771 82.9219 603.251 81.73H602.999V102.504H590.685ZM602.747 68.6611C602.747 70.7427 603.024 72.5557 603.578 74.1001C604.149 75.6446 604.963 76.8449 606.021 77.701C607.095 78.5404 608.379 78.9601 609.873 78.9601C611.384 78.9601 612.668 78.5404 613.726 77.701C614.784 76.8449 615.581 75.6446 616.118 74.1001C616.672 72.5557 616.949 70.7427 616.949 68.6611C616.949 66.5795 616.672 64.7748 616.118 63.2472C615.581 61.7195 614.784 60.536 613.726 59.6967C612.685 58.8573 611.401 58.4376 609.873 58.4376C608.362 58.4376 607.078 58.8489 606.021 59.6715C604.963 60.4941 604.149 61.6692 603.578 63.1968C603.024 64.7245 602.747 66.5459 602.747 68.6611ZM650.577 88.7302C646.531 88.7302 643.039 87.9329 640.102 86.3381C637.181 84.7265 634.931 82.435 633.353 79.4637C631.792 76.4755 631.011 72.925 631.011 68.8122C631.011 64.8168 631.8 61.325 633.378 58.3369C634.956 55.332 637.181 52.9986 640.051 51.3366C642.922 49.6579 646.305 48.8185 650.199 48.8185C652.952 48.8185 655.47 49.2466 657.754 50.1028C660.037 50.9589 662.009 52.2263 663.671 53.9051C665.333 55.5838 666.626 57.657 667.549 60.1247C668.472 62.5757 668.934 65.3876 668.934 68.5603V71.6324H635.317V64.481H657.477C657.46 63.1716 657.149 62.0049 656.545 60.9809C655.941 59.9569 655.11 59.1595 654.052 58.5887C653.011 58.0012 651.811 57.7074 650.451 57.7074C649.075 57.7074 647.841 58.0179 646.749 58.6391C645.658 59.2434 644.794 60.0744 644.156 61.132C643.518 62.1728 643.182 63.3563 643.149 64.6825V71.9598C643.149 73.5378 643.459 74.9227 644.08 76.1146C644.701 77.2897 645.583 78.2046 646.724 78.8593C647.866 79.514 649.226 79.8414 650.804 79.8414C651.895 79.8414 652.885 79.6903 653.775 79.3881C654.665 79.086 655.428 78.6411 656.066 78.0535C656.704 77.466 657.183 76.7441 657.502 75.888L668.808 76.2153C668.338 78.7502 667.305 80.9577 665.711 82.8379C664.133 84.7013 662.059 86.1534 659.491 87.1942C656.923 88.2182 653.951 88.7302 650.577 88.7302ZM689.757 88.7302C685.711 88.7302 682.22 87.9329 679.282 86.3381C676.361 84.7265 674.111 82.435 672.533 79.4637C670.972 76.4755 670.192 72.925 670.192 68.8122C670.192 64.8168 670.981 61.325 672.559 58.3369C674.137 55.332 676.361 52.9986 679.232 51.3366C682.102 49.6579 685.485 48.8185 689.38 48.8185C692.133 48.8185 694.651 49.2466 696.934 50.1028C699.217 50.9589 701.189 52.2263 702.851 53.9051C704.513 55.5838 705.806 57.657 706.729 60.1247C707.652 62.5757 708.114 65.3876 708.114 68.5603V71.6324H674.498V64.481H696.657C696.64 63.1716 696.329 62.0049 695.725 60.9809C695.121 59.9569 694.29 59.1595 693.232 58.5887C692.191 58.0012 690.991 57.7074 689.631 57.7074C688.255 57.7074 687.021 58.0179 685.93 58.6391C684.839 59.2434 683.974 60.0744 683.336 61.132C682.698 62.1728 682.362 63.3563 682.329 64.6825V71.9598C682.329 73.5378 682.639 74.9227 683.261 76.1146C683.882 77.2897 684.763 78.2046 685.905 78.8593C687.046 79.514 688.406 79.8414 689.984 79.8414C691.075 79.8414 692.065 79.6903 692.955 79.3881C693.845 79.086 694.609 78.6411 695.247 78.0535C695.885 77.466 696.363 76.7441 696.682 75.888L707.988 76.2153C707.518 78.7502 706.486 80.9577 704.891 82.8379C703.313 84.7013 701.24 86.1534 698.671 87.1942C696.103 88.2182 693.131 88.7302 689.757 88.7302ZM724.984 88.554C722.13 88.554 719.537 87.8153 717.203 86.3381C714.87 84.8608 713.006 82.6449 711.613 79.6903C710.22 76.7357 709.523 73.0677 709.523 68.6863C709.523 64.1369 710.245 60.3933 711.689 57.4556C713.132 54.5178 715.021 52.3439 717.354 50.9337C719.704 49.5236 722.231 48.8185 724.934 48.8185C726.965 48.8185 728.702 49.1711 730.146 49.8761C731.59 50.5644 732.782 51.4541 733.722 52.5453C734.662 53.6365 735.375 54.7696 735.862 55.9447H736.114V36.4295H748.427V88H736.24V81.73H735.862C735.342 82.9219 734.603 84.0382 733.646 85.079C732.689 86.1198 731.489 86.9592 730.045 87.5971C728.618 88.235 726.931 88.554 724.984 88.554ZM729.265 78.9601C730.759 78.9601 732.035 78.5404 733.092 77.701C734.15 76.8449 734.964 75.6446 735.535 74.1001C736.106 72.5557 736.391 70.7427 736.391 68.6611C736.391 66.5459 736.106 64.7245 735.535 63.1968C734.981 61.6692 734.167 60.4941 733.092 59.6715C732.035 58.8489 730.759 58.4376 729.265 58.4376C727.737 58.4376 726.445 58.8573 725.387 59.6967C724.329 60.536 723.524 61.7195 722.97 63.2472C722.432 64.7748 722.164 66.5795 722.164 68.6611C722.164 70.7427 722.441 72.5557 722.995 74.1001C723.549 75.6446 724.346 76.8449 725.387 77.701C726.445 78.5404 727.737 78.9601 729.265 78.9601Z" fill="white"/>
<defs>
<clipPath id="clip0_1364_83">
<rect width="124" height="124" fill="white"/>
</clipPath>
</defs>
</svg>
