<svg width="366" height="34" viewBox="0 0 366 34" fill="none" xmlns="http://www.w3.org/2000/svg">
<path fill-rule="evenodd" clip-rule="evenodd" d="M28.5284 6.9216H7.46191V34H0.5V0H7.4685V3.05234H28.5284V0H35.5V34H28.5284V6.9216ZM2.97059 20V22H5.02941V20H2.97059ZM2.97059 23.9V31.6H4.99132V23.9H2.97059Z" fill="#fff"/>
<path d="M121.341 9.49825H115.189V24.5329H135.68V20.0673H121.335V9.49825H121.341ZM138.759 24.5329H144.91V9.49825H138.759V24.5329ZM169.817 16.8287C169.054 16.4986 168.055 16.2557 166.829 16.0876C165.603 15.9194 164.109 15.8385 162.354 15.8385C160.762 15.8385 159.451 15.8198 158.42 15.7886C157.39 15.7575 156.587 15.7014 156.02 15.6142C155.452 15.5271 155.054 15.4149 154.826 15.2717C154.598 15.1285 154.48 14.9416 154.48 14.7112C154.48 14.2565 154.898 13.9327 155.72 13.7458C156.548 13.559 157.814 13.4655 159.523 13.4655C161.232 13.4655 162.576 13.6026 163.509 13.8766C164.441 14.1506 164.95 14.5492 165.035 15.0599H171.408C171.408 13.1043 170.41 11.6033 168.421 10.5633C166.431 9.52316 163.548 9 159.771 9C157.194 9 155.048 9.19307 153.339 9.57299C151.623 9.95913 150.344 10.5383 149.503 11.3106C148.661 12.0891 148.237 13.067 148.237 14.2565C148.237 14.9478 148.42 15.5395 148.779 16.0315C149.137 16.5236 149.698 16.9346 150.462 17.2522C151.225 17.5761 152.197 17.8065 153.391 17.956C154.578 18.1055 155.994 18.1802 157.638 18.1802C159.836 18.1802 161.539 18.2114 162.752 18.2736C163.965 18.3359 164.807 18.448 165.283 18.6162C165.759 18.7844 165.994 19.0086 165.994 19.3075C165.994 19.6189 165.844 19.868 165.55 20.0487C165.257 20.2293 164.748 20.3538 164.037 20.4223C163.326 20.4909 162.354 20.5282 161.121 20.5282C159.888 20.5282 158.779 20.4722 157.84 20.3538C156.9 20.2355 156.144 20.0611 155.589 19.8369C155.028 19.6127 154.695 19.3324 154.578 19.0023H147.859C147.859 19.7559 148.042 20.441 148.413 21.0576C148.785 21.6742 149.32 22.2347 150.025 22.7267C150.729 23.2188 151.59 23.636 152.608 23.9724C153.626 24.3087 154.787 24.564 156.091 24.7384C157.396 24.9128 158.825 24.9938 160.384 24.9938C163.137 24.9938 165.368 24.8132 167.077 24.4519C168.78 24.0907 170.032 23.5364 170.815 22.7828C171.604 22.0292 171.996 21.0576 171.996 19.868C171.996 19.1767 171.826 18.5788 171.48 18.0681C171.135 17.5574 170.58 17.1401 169.817 16.81V16.8287ZM173.718 13.9638H183.438V24.5329H189.589V13.9638H199.309V9.49825H173.724V13.9638H173.718ZM95.73 9.49825L85.1751 24.5329H91.9399L93.473 22.2534H104.909L106.455 24.5329H113.219L102.567 9.49825H95.73ZM95.841 18.7283L99.1679 13.7832L102.521 18.7283H95.841ZM65.7157 13.8579C67.0269 13.615 68.7361 13.4905 70.8301 13.4905C72.6175 13.4905 74.0331 13.6026 75.0834 13.8206C76.1337 14.0385 76.923 14.3437 77.4449 14.7236C77.9667 15.1098 78.332 15.552 78.5277 16.0502H84.9272C84.8424 14.5492 84.2814 13.2725 83.2311 12.2199C82.1809 11.1674 80.6283 10.3764 78.5799 9.83457C76.5316 9.29272 73.9483 9.02491 70.8301 9.02491C68.449 9.02491 66.3224 9.1557 64.4306 9.42351C62.5453 9.69132 60.934 10.1335 59.6098 10.7501C58.279 11.3667 57.2613 12.2012 56.5568 13.2413C55.8523 14.2814 55.5 15.5769 55.5 17.1277C55.5 18.6785 55.8523 19.9615 56.5568 20.9766C57.2613 21.9981 58.279 22.7953 59.6098 23.3869C60.9405 23.9724 62.5453 24.3896 64.4306 24.6325C66.3159 24.8754 68.449 25 70.8301 25C73.9483 25 76.525 24.7509 78.5669 24.2464C80.6087 23.7419 82.1548 22.9946 83.2051 21.9918C84.2553 20.9891 84.8229 19.7435 84.9011 18.255H78.5082C78.3125 18.6598 77.9471 19.0397 77.4253 19.3947C76.8969 19.7497 76.1141 20.0237 75.0768 20.2293C74.0331 20.4348 72.6175 20.5345 70.8301 20.5345C68.7295 20.5345 67.0269 20.4161 65.7157 20.1794C64.4045 19.9428 63.4455 19.5753 62.8389 19.0771C62.2322 18.5726 61.9256 17.9249 61.9256 17.1277C61.9256 16.2495 62.2322 15.5457 62.8389 15.0163C63.4455 14.487 64.4045 14.0946 65.7157 13.8517V13.8579ZM323.959 10.6255C323.157 10.202 322.217 9.9093 321.141 9.74737C320.065 9.58544 318.916 9.49825 317.684 9.49825H300.612V24.5329H306.763V20.659H317.684C318.916 20.659 320.065 20.603 321.141 20.4971C322.217 20.3912 323.157 20.1608 323.959 19.8182C324.761 19.4757 325.394 18.9463 325.851 18.2425C326.308 17.5387 326.542 16.5858 326.542 15.3776C326.542 14.1693 326.314 13.1853 325.851 12.4192C325.394 11.6532 324.761 11.0553 323.959 10.6318V10.6255ZM319.888 16.3243C319.549 16.4737 319.138 16.5485 318.649 16.5485H306.77V14.2005H318.649C319.138 14.2005 319.556 14.269 319.888 14.4122C320.221 14.5555 320.391 14.8731 320.391 15.3776C320.391 15.8821 320.221 16.181 319.888 16.3305V16.3243ZM281.205 9.49825L270.65 24.5329H277.414L278.947 22.2534H290.383L291.929 24.5329H298.694L288.041 9.49825H281.205ZM281.315 18.7283L284.642 13.7832L287.995 18.7283H281.315ZM207.914 18.1865H223.165V15.8385H207.914V13.9576H226.564V9.49202H201.762V24.5267H226.61V20.0611H207.914V18.1802V18.1865ZM354.808 12.4068C354.352 11.6407 353.719 11.0428 352.917 10.6193C352.114 10.1958 351.175 9.90307 350.099 9.74114C349.022 9.57921 347.874 9.49202 346.641 9.49202H329.569V24.5267H335.721V20.6528H346.641C347.874 20.6528 349.022 20.5967 350.099 20.4909C351.175 20.385 352.114 20.1545 352.917 19.812C353.719 19.4694 354.352 18.9401 354.808 18.2363C355.265 17.5325 355.5 16.5796 355.5 15.3714C355.5 14.1631 355.272 13.1791 354.808 12.413V12.4068ZM348.84 16.318C348.5 16.4675 348.089 16.5422 347.6 16.5422H335.721V14.1942H347.6C348.089 14.1942 348.507 14.2627 348.84 14.406C349.172 14.5492 349.342 14.8669 349.342 15.3714C349.342 15.8758 349.172 16.1748 348.84 16.3243V16.318ZM252.195 18.6349L235.958 9.49202H229.806V24.5267H235.958V15.552L252.195 24.5267H258.346V9.49202H252.195V18.6349ZM262.156 24.5267H268.308V9.49202H262.156V24.5267Z" fill="#fff"/>
<path d="M362.5 15C362.082 15 361.687 14.9231 361.313 14.7692C360.951 14.6154 360.632 14.4066 360.357 14.1429C360.093 13.8791 359.885 13.5659 359.731 13.2033C359.577 12.8297 359.5 12.4286 359.5 12C359.5 11.5714 359.577 11.1758 359.731 10.8132C359.885 10.4396 360.093 10.1209 360.357 9.85714C360.632 9.59341 360.951 9.38462 361.313 9.23077C361.687 9.07692 362.082 9 362.5 9C362.918 9 363.308 9.07692 363.67 9.23077C364.044 9.38462 364.363 9.59341 364.626 9.85714C364.901 10.1209 365.115 10.4396 365.269 10.8132C365.423 11.1758 365.5 11.5714 365.5 12C365.5 12.4286 365.423 12.8297 365.269 13.2033C365.115 13.5659 364.901 13.8791 364.626 14.1429C364.363 14.4066 364.044 14.6154 363.67 14.7692C363.308 14.9231 362.918 15 362.5 15ZM362.5 14.489C362.841 14.489 363.154 14.4341 363.44 14.3242C363.736 14.2033 363.989 14.0385 364.198 13.8297C364.418 13.6209 364.588 13.3736 364.709 13.0879C364.841 12.8022 364.907 12.489 364.907 12.1484V11.8516C364.907 11.511 364.841 11.1978 364.709 10.9121C364.588 10.6264 364.418 10.3791 364.198 10.1703C363.989 9.96154 363.736 9.8022 363.44 9.69231C363.154 9.57143 362.841 9.51099 362.5 9.51099C362.159 9.51099 361.841 9.57143 361.544 9.69231C361.258 9.8022 361.005 9.96154 360.786 10.1703C360.577 10.3791 360.407 10.6264 360.275 10.9121C360.154 11.1978 360.093 11.511 360.093 11.8516V12.1484C360.093 12.489 360.154 12.8022 360.275 13.0879C360.407 13.3736 360.577 13.6209 360.786 13.8297C361.005 14.0385 361.258 14.2033 361.544 14.3242C361.841 14.4341 362.159 14.489 362.5 14.489ZM361.956 13.5165H361.462V10.467H362.747C363.044 10.467 363.275 10.5495 363.44 10.7143C363.615 10.8681 363.703 11.0934 363.703 11.3901C363.703 11.6209 363.637 11.8132 363.505 11.967C363.385 12.1099 363.225 12.2033 363.027 12.2473L363.819 13.5165H363.258L362.533 12.3132H361.956V13.5165ZM362.648 11.9341C363 11.9341 363.176 11.7747 363.176 11.456V11.3407C363.176 11.022 363 10.8626 362.648 10.8626H361.956V11.9341H362.648Z" fill="#fff"/>
</svg>
