<svg width="495" height="124" viewBox="0 0 495 124" fill="none" xmlns="http://www.w3.org/2000/svg">
<path d="M128.563 0C145.351 0 161.089 7.24963 171.677 19.8403C182.741 32.9078 187.033 49.8857 183.981 67.5323C181.597 80.9813 174.824 93.9535 164.808 103.969C154.793 114.08 141.916 120.852 128.563 123.142C125.224 123.714 121.886 124 118.642 124H19.4522C4.34407 124 -3.06748 112.668 2.97998 98.8176L27.5502 42.6372C29.0639 39.1765 31.554 36.2325 34.7155 34.1656C37.877 32.0987 41.5727 30.9987 45.3499 31.0003H128.658C136.289 31.0003 143.347 34.1477 148.117 39.7748C153.172 45.7846 155.079 53.7018 153.648 62.1902C151.073 77.071 138.197 90.1374 123.698 92.5217C122.077 92.809 120.455 92.9997 118.833 92.9997L47.864 93.0607C43.8571 93.0652 41.17 88.9474 42.7847 85.281L56.4422 54.2729H73.3259L65.2323 72.8889C64.2774 75.0858 65.8866 77.5423 68.2832 77.5423L120.15 77.5478C127.304 77.5478 136.652 68.8676 138.368 59.8058C139.99 51.222 134.743 46.5476 128.734 46.5476H45.4064C44.6646 46.5465 43.9386 46.7627 43.3182 47.1694C42.6978 47.5762 42.2101 48.1558 41.9153 48.8366L18.5605 102.34C17.2807 105.271 19.4289 108.55 22.6262 108.55L118.834 108.548C121.314 108.548 123.795 108.262 126.179 107.88C147.164 104.352 165.191 86.3235 168.912 64.9583C171.201 51.8897 168.053 39.4898 160.041 29.9523C152.41 20.8905 140.964 15.6438 128.754 15.6438H92.8223C92.0785 15.6446 91.351 15.8626 90.7293 16.271C90.1075 16.6794 89.6185 17.2604 89.3223 17.9427L86.9767 23.3703H70.0909L75.1557 11.7434C76.664 8.28225 79.1479 5.33553 82.3039 3.26339C85.4598 1.19124 89.1511 0.0834482 92.9266 0.075413L128.563 0Z" fill="white"/>
<path d="M231.965 88H212.903V36.4291H231.94C237.194 36.4291 241.719 37.4615 245.513 39.5264C249.323 41.5744 252.261 44.529 254.326 48.3901C256.391 52.2344 257.423 56.8342 257.423 62.1894C257.423 67.5613 256.391 72.1779 254.326 76.039C252.278 79.9001 249.349 82.8631 245.538 84.9279C241.727 86.976 237.203 88 231.965 88ZM225.368 77.3736H231.487C234.374 77.3736 236.817 76.8867 238.814 75.9131C240.829 74.9226 242.348 73.3194 243.372 71.1035C244.413 68.8708 244.933 65.8994 244.933 62.1894C244.933 58.4793 244.413 55.5248 243.372 53.3256C242.331 51.1097 240.795 49.5149 238.764 48.5412C236.75 47.5507 234.265 47.0555 231.31 47.0555H225.368V77.3736ZM279.235 88.7303C275.189 88.7303 271.698 87.9329 268.76 86.338C265.839 84.7265 263.589 82.435 262.011 79.4636C260.45 76.4754 259.669 72.9249 259.669 68.812C259.669 64.8166 260.458 61.3248 262.036 58.3367C263.614 55.3317 265.839 52.9983 268.709 51.3363C271.58 49.6576 274.963 48.8182 278.857 48.8182C281.611 48.8182 284.129 49.2463 286.412 50.1024C288.695 50.9586 290.667 52.226 292.329 53.9048C293.991 55.5835 295.284 57.6568 296.207 60.1245C297.131 62.5755 297.592 65.3874 297.592 68.5602V71.6323H263.975V64.4808H286.135C286.118 63.1714 285.807 62.0047 285.203 60.9807C284.599 59.9566 283.768 59.1592 282.71 58.5885C281.669 58.0009 280.469 57.7071 279.109 57.7071C277.733 57.7071 276.499 58.0177 275.408 58.6388C274.316 59.2432 273.452 60.0741 272.814 61.1318C272.176 62.1726 271.84 63.3561 271.807 64.6823V71.9596C271.807 73.5376 272.117 74.9226 272.738 76.1145C273.36 77.2896 274.241 78.2045 275.382 78.8593C276.524 79.514 277.884 79.8413 279.462 79.8413C280.553 79.8413 281.543 79.6902 282.433 79.3881C283.323 79.0859 284.087 78.641 284.725 78.0535C285.363 77.4659 285.841 76.744 286.16 75.8879L297.466 76.2152C296.996 78.7501 295.964 80.9577 294.369 82.8379C292.791 84.7013 290.718 86.1534 288.149 87.1942C285.581 88.2182 282.609 88.7303 279.235 88.7303ZM336.817 49.3218L323.546 88H309.445L296.2 49.3218H309.168L316.294 75.9634H316.697L323.849 49.3218H336.817ZM368.744 88H349.682V36.4291H368.719C373.973 36.4291 378.497 37.4615 382.291 39.5264C386.102 41.5744 389.04 44.529 391.105 48.3901C393.17 52.2344 394.202 56.8342 394.202 62.1894C394.202 67.5613 393.17 72.1779 391.105 76.039C389.057 79.9001 386.127 82.8631 382.317 84.9279C378.506 86.976 373.982 88 368.744 88ZM362.146 77.3736H368.265C371.153 77.3736 373.595 76.8867 375.593 75.9131C377.608 74.9226 379.127 73.3194 380.151 71.1035C381.192 68.8708 381.712 65.8994 381.712 62.1894C381.712 58.4793 381.192 55.5248 380.151 53.3256C379.11 51.1097 377.574 49.5149 375.543 48.5412C373.528 47.5507 371.044 47.0555 368.089 47.0555H362.146V77.3736ZM415.989 88.7303C411.926 88.7303 408.434 87.8993 405.513 86.2373C402.609 84.5586 400.368 82.2251 398.79 79.237C397.229 76.232 396.448 72.7486 396.448 68.7868C396.448 64.8082 397.229 61.3248 398.79 58.3367C400.368 55.3317 402.609 52.9983 405.513 51.3363C408.434 49.6576 411.926 48.8182 415.989 48.8182C420.051 48.8182 423.535 49.6576 426.439 51.3363C429.36 52.9983 431.601 55.3317 433.162 58.3367C434.74 61.3248 435.529 64.8082 435.529 68.7868C435.529 72.7486 434.74 76.232 433.162 79.237C431.601 82.2251 429.36 84.5586 426.439 86.2373C423.535 87.8993 420.051 88.7303 415.989 88.7303ZM416.064 79.4384C417.542 79.4384 418.792 78.9852 419.816 78.0786C420.84 77.1721 421.621 75.9131 422.158 74.3015C422.712 72.6899 422.989 70.8265 422.989 68.7113C422.989 66.5625 422.712 64.6823 422.158 63.0707C421.621 61.4591 420.84 60.2001 419.816 59.2935C418.792 58.387 417.542 57.9338 416.064 57.9338C414.537 57.9338 413.244 58.387 412.186 59.2935C411.146 60.2001 410.348 61.4591 409.794 63.0707C409.257 64.6823 408.988 66.5625 408.988 68.7113C408.988 70.8265 409.257 72.6899 409.794 74.3015C410.348 75.9131 411.146 77.1721 412.186 78.0786C413.244 78.9852 414.537 79.4384 416.064 79.4384ZM438.292 49.3218H450.605V89.6116C450.605 92.8012 449.95 95.3361 448.641 97.2163C447.348 99.0965 445.519 100.448 443.152 101.27C440.785 102.093 437.989 102.504 434.766 102.504C434.33 102.504 433.919 102.496 433.532 102.479C433.146 102.462 432.727 102.446 432.273 102.429V93.0866C432.576 93.1202 432.844 93.1453 433.079 93.1621C433.314 93.1789 433.549 93.1873 433.784 93.1873C435.48 93.1873 436.655 92.8683 437.31 92.2304C437.964 91.6093 438.292 90.6524 438.292 89.3598V49.3218ZM444.436 44.8144C442.707 44.8144 441.221 44.2436 439.979 43.1021C438.736 41.9437 438.115 40.5504 438.115 38.922C438.115 37.3104 438.736 35.9339 439.979 34.7923C441.221 33.634 442.707 33.0548 444.436 33.0548C446.182 33.0548 447.667 33.634 448.893 34.7923C450.135 35.9339 450.756 37.3104 450.756 38.922C450.756 40.5504 450.135 41.9437 448.893 43.1021C447.667 44.2436 446.182 44.8144 444.436 44.8144ZM472.952 88.7303C468.89 88.7303 465.398 87.8993 462.477 86.2373C459.573 84.5586 457.331 82.2251 455.753 79.237C454.192 76.232 453.412 72.7486 453.412 68.7868C453.412 64.8082 454.192 61.3248 455.753 58.3367C457.331 55.3317 459.573 52.9983 462.477 51.3363C465.398 49.6576 468.89 48.8182 472.952 48.8182C477.015 48.8182 480.498 49.6576 483.402 51.3363C486.323 52.9983 488.564 55.3317 490.126 58.3367C491.704 61.3248 492.493 64.8082 492.493 68.7868C492.493 72.7486 491.704 76.232 490.126 79.237C488.564 82.2251 486.323 84.5586 483.402 86.2373C480.498 87.8993 477.015 88.7303 472.952 88.7303ZM473.028 79.4384C474.505 79.4384 475.756 78.9852 476.78 78.0786C477.804 77.1721 478.584 75.9131 479.122 74.3015C479.676 72.6899 479.953 70.8265 479.953 68.7113C479.953 66.5625 479.676 64.6823 479.122 63.0707C478.584 61.4591 477.804 60.2001 476.78 59.2935C475.756 58.387 474.505 57.9338 473.028 57.9338C471.5 57.9338 470.207 58.387 469.15 59.2935C468.109 60.2001 467.312 61.4591 466.758 63.0707C466.22 64.6823 465.952 66.5625 465.952 68.7113C465.952 70.8265 466.22 72.6899 466.758 74.3015C467.312 75.9131 468.109 77.1721 469.15 78.0786C470.207 78.9852 471.5 79.4384 473.028 79.4384Z" fill="white"/>
</svg>
