<svg width="544" height="125" viewBox="0 0 544 125" fill="none" xmlns="http://www.w3.org/2000/svg">
<g clip-path="url(#clip0_43_51)">
<path d="M189.317 41.0794V80.789H213.71V91H177.404V41.0794H189.317ZM226.472 51.2904V61.2178H247.462V70.8616H226.472V80.789H252V91H214.559V41.0794H252V51.2904H226.472ZM251.177 41.0794H263.799L271.883 55.8995C272.356 56.7977 272.639 58.0978 272.734 59.7996C272.734 60.7923 273.112 61.2887 273.868 61.2887C274.625 61.2887 275.003 60.7923 275.003 59.7996C275.098 58.0978 275.381 56.7977 275.854 55.8995L283.938 41.0794H296.56L282.023 65.2597L297.694 91H284.93L275.854 74.8325C275.381 73.9816 275.098 72.7052 275.003 71.0034C275.003 70.0106 274.625 69.5143 273.868 69.5143C273.112 69.5143 272.734 70.0106 272.734 71.0034C272.639 72.7052 272.356 73.9816 271.883 74.8325L262.806 91H250.043L265.714 65.2597L251.177 41.0794ZM296.834 91V41.0794H308.747V91H296.834ZM329.43 41.0794L345.881 80.3635C346.165 80.9308 346.519 81.2144 346.945 81.2144C347.559 81.2144 347.866 80.9308 347.866 80.3635C347.866 80.0326 347.748 79.5835 347.512 79.0162C346.992 77.9289 346.59 76.9598 346.306 76.1089C346.023 75.2107 345.881 74.3125 345.881 73.4143V41.0794H357.794V91H339.641L323.19 51.7159C322.859 51.1013 322.481 50.8177 322.055 50.8649C321.488 51.0068 321.204 51.314 321.204 51.7868C321.204 52.0704 321.322 52.4959 321.559 53.0631C322.079 54.1504 322.481 55.1432 322.764 56.0414C323.048 56.8923 323.19 57.7668 323.19 58.665V91H311.277V41.0794H329.43ZM357.52 66.0397C357.52 61.1705 358.536 56.7741 360.569 52.8504C362.602 48.8795 365.557 45.7358 369.433 43.4194C373.309 41.103 377.895 39.9448 383.189 39.9448C387.87 39.9448 391.864 40.7957 395.173 42.4976C398.53 44.1521 401.13 46.3503 402.973 49.0922C404.817 51.834 405.928 54.8359 406.306 58.0978H394.464C393.755 55.6868 392.455 53.7722 390.564 52.354C388.72 50.8886 386.286 50.1558 383.26 50.1558C380.329 50.1558 377.824 50.8649 375.744 52.2831C373.664 53.6541 372.08 55.545 370.993 57.9559C369.953 60.3669 369.433 63.0615 369.433 66.0397C369.433 70.7197 370.52 74.5489 372.695 77.5271C374.917 80.458 378.179 81.9235 382.48 81.9235C384.75 81.9235 386.759 81.4744 388.508 80.5762C390.304 79.6308 391.699 78.4962 392.691 77.1725C393.684 75.8489 394.251 74.5962 394.393 73.4143H383.048V63.7706H406.306V91H394.393V89.7236C394.393 88.2109 394.771 86.5327 395.528 84.689C395.811 84.0272 395.953 83.5308 395.953 83.1999C395.953 82.7744 395.811 82.5144 395.528 82.4199C395.339 82.3253 395.197 82.2781 395.102 82.2781C394.677 82.2781 394.346 82.5617 394.11 83.129C393.07 85.4927 391.462 87.5963 389.288 89.44C387.16 91.2364 384.3 92.1346 380.708 92.1346C375.933 92.1346 371.797 91 368.298 88.7309C364.8 86.4618 362.129 83.3417 360.286 79.3708C358.442 75.3998 357.52 70.9561 357.52 66.0397ZM447.415 41.0794V51.2904H431.814V91H419.901V51.2904H404.301V41.0794H447.415ZM468.647 39.9448C474.036 39.9448 478.645 41.103 482.474 43.4194C486.35 45.6885 489.258 48.8085 491.196 52.7795C493.181 56.7505 494.174 61.1705 494.174 66.0397C494.174 70.9088 493.181 75.3289 491.196 79.2998C489.258 83.2708 486.35 86.4145 482.474 88.7309C478.645 91 474.036 92.1346 468.647 92.1346C463.257 92.1346 458.625 91 454.748 88.7309C450.919 86.4145 448.012 83.2708 446.026 79.2998C444.088 75.3289 443.119 70.9088 443.119 66.0397C443.119 61.1705 444.088 56.7505 446.026 52.7795C448.012 48.8085 450.919 45.6885 454.748 43.4194C458.625 41.103 463.257 39.9448 468.647 39.9448ZM468.647 81.9235C471.483 81.9235 473.918 81.2381 475.95 79.8671C478.03 78.4489 479.59 76.5344 480.63 74.1234C481.718 71.7125 482.261 69.0179 482.261 66.0397C482.261 63.0615 481.718 60.3669 480.63 57.9559C479.59 55.545 478.03 53.6541 475.95 52.2831C473.918 50.8649 471.483 50.1558 468.647 50.1558C465.81 50.1558 463.352 50.8649 461.272 52.2831C459.239 53.6541 457.679 55.545 456.592 57.9559C455.552 60.3669 455.032 63.0615 455.032 66.0397C455.032 69.0179 455.552 71.7125 456.592 74.1234C457.679 76.5344 459.239 78.4489 461.272 79.8671C463.352 81.2381 465.81 81.9235 468.647 81.9235ZM512.053 41.0794L528.505 80.3635C528.788 80.9308 529.143 81.2144 529.568 81.2144C530.183 81.2144 530.49 80.9308 530.49 80.3635C530.49 80.0326 530.372 79.5835 530.136 79.0162C529.616 77.9289 529.214 76.9598 528.93 76.1089C528.646 75.2107 528.505 74.3125 528.505 73.4143V41.0794H540.417V91H522.265L505.813 51.7159C505.482 51.1013 505.104 50.8177 504.679 50.8649C504.112 51.0068 503.828 51.314 503.828 51.7868C503.828 52.0704 503.946 52.4959 504.182 53.0631C504.702 54.1504 505.104 55.1432 505.388 56.0414C505.672 56.8923 505.813 57.7668 505.813 58.665V91H493.901V41.0794H512.053Z" fill="white"/>
<g clip-path="url(#clip1_43_51)">
<path d="M64.9987 0.124817H59.0026V124.125H64.9987V0.124817Z" fill="white"/>
<path d="M64.9987 0.124817H59.0026V124.125H64.9987V0.124817Z" fill="white"/>
<path d="M124 59.1267H0V65.1229H124V59.1267Z" fill="white"/>
<path d="M124 59.1267H0V65.1229H124V59.1267Z" fill="white"/>
<path d="M20.2688 16.1604L16.0291 20.4002L103.71 108.081L107.949 103.84L20.2688 16.1604Z" fill="white"/>
<path d="M20.2688 16.1604L16.0291 20.4002L103.71 108.081L107.949 103.84L20.2688 16.1604Z" fill="white"/>
<path d="M103.71 16.1591L16.0291 103.839L20.2688 108.079L107.949 20.399L103.71 16.1591Z" fill="white"/>
<path d="M103.71 16.1591L16.0291 103.839L20.2688 108.079L107.949 20.399L103.71 16.1591Z" fill="white"/>
<path d="M5.73048 35.9755L3.46814 41.5285L118.305 88.3142L120.567 82.7607L5.73048 35.9755Z" fill="white"/>
<path d="M5.73048 35.9755L3.46814 41.5285L118.305 88.3142L120.567 82.7607L5.73048 35.9755Z" fill="white"/>
<path d="M82.6358 3.60153L35.8506 118.438L41.4036 120.7L88.1887 5.86387L82.6358 3.60153Z" fill="white"/>
<path d="M82.6358 3.60153L35.8506 118.438L41.4036 120.7L88.1887 5.86387L82.6358 3.60153Z" fill="white"/>
<path d="M118.441 36.1842L3.40637 82.4858L5.64532 88.0484L120.68 41.7469L118.441 36.1842Z" fill="white"/>
<path d="M118.441 36.1842L3.40637 82.4858L5.64532 88.0484L120.68 41.7469L118.441 36.1842Z" fill="white"/>
<path d="M41.5967 3.53339L36.0341 5.77175L82.3232 120.806L87.8856 118.568L41.5967 3.53339Z" fill="white"/>
<path d="M41.5967 3.53339L36.0341 5.77175L82.3232 120.806L87.8856 118.568L41.5967 3.53339Z" fill="white"/>
</g>
</g>
<defs>
<clipPath id="clip0_43_51">
<rect width="544" height="124.844" fill="white"/>
</clipPath>
<clipPath id="clip1_43_51">
<rect width="124" height="124.844" fill="white"/>
</clipPath>
</defs>
</svg>
