<svg  viewBox="0 0 2581 353" fill="none" xmlns="http://www.w3.org/2000/svg">
<path d="M0 344.851V7.70616H76.5801V282.239H243.226V344.851H0ZM260.007 344.851V7.70616H517.202V70.3189H336.588V142.083H495.048V202.768H336.588V282.239H517.683V344.851H260.007ZM527.674 344.851L632.67 176.279L528.637 7.70616H622.075L663.976 86.6944C676.018 104.997 677.461 127.152 676.981 144.973H701.062C700.581 127.152 702.026 104.997 714.067 86.6944L755.97 7.70616H849.407L745.373 176.279L850.37 344.851H755.487L713.104 263.936C700.581 244.19 700.581 223.962 701.062 206.622H676.981C677.461 223.962 677.461 244.19 664.941 263.936L622.555 344.851H527.674ZM864.755 7.70616H941.817V344.851H864.755V7.70616ZM977.477 344.851V7.70616H1081.51L1222.15 291.871H1246.23V287.056C1217.81 233.593 1203.36 190.728 1203.36 144.973V7.70616H1277.54V344.851H1174.95L1030.94 54.9065H1006.86V59.7228C1032.38 99.217 1051.65 147.862 1051.65 202.768V344.851H977.477ZM1458.73 352.557C1356.63 352.557 1299.31 284.165 1299.31 175.797C1299.31 67.9106 1365.78 0 1471.25 0C1564.21 0 1623.93 46.7188 1631.64 123.78H1548.8C1543.02 89.5844 1515.57 69.3555 1471.25 69.3555C1415.87 69.3555 1381.19 110.295 1381.19 175.797C1381.19 244.671 1413.46 283.202 1471.25 283.202C1512.19 283.202 1539.65 261.047 1547.83 223.479H1471.25V164.238H1636.46V344.851H1572.88C1574.81 325.105 1583.96 302.468 1600.81 281.276V276.459H1573.84C1555.06 324.622 1515.57 352.557 1458.73 352.557ZM1750.74 344.851V70.3189H1640.44V7.70616H1938.09V70.3189H1827.8V344.851H1750.74ZM2086.27 352.557C1980.81 352.557 1914.34 284.165 1914.34 175.797C1914.34 67.9106 1980.81 0 2086.27 0C2192.24 0 2258.7 67.9106 2258.7 175.797C2258.7 284.165 2192.24 352.557 2086.27 352.557ZM1996.22 175.797C1996.22 241.299 2030.89 283.202 2086.27 283.202C2142.15 283.202 2176.83 241.299 2176.83 175.797C2176.83 110.295 2142.15 69.3555 2086.27 69.3555C2030.89 69.3555 1996.22 110.295 1996.22 175.797ZM2280.43 344.851V7.70616H2384.47L2525.11 291.871H2549.19V287.056C2520.77 233.593 2506.31 190.728 2506.31 144.973V7.70616H2580.49V344.851H2477.91L2333.89 54.9065H2309.8V59.7228C2335.35 99.217 2354.61 147.862 2354.61 202.768V344.851H2280.43Z" fill="black"/>
</svg>
