<svg width="829" height="122" viewBox="0 0 829 122" fill="none" xmlns="http://www.w3.org/2000/svg">
<g clip-path="url(#clip0_43_34)">
<mask id="mask0_43_34" style="mask-type:alpha" maskUnits="userSpaceOnUse" x="11" y="9" width="103" height="103">
<g style="mix-blend-mode:exclusion">
<rect x="11.7703" y="9.82455" width="102.009" height="102.009" rx="51.0047" fill="white"/>
</g>
</mask>
<g mask="url(#mask0_43_34)">
</g>
<g clip-path="url(#clip1_43_34)">
<path d="M-148 135.823C-137.152 136.481 -105.515 139.877 -82.9093 139.774C-60.3037 139.671 -30.3855 134.003 -12.3664 135.204C5.6527 136.404 9.4359 145.869 25.2053 146.978C40.9748 148.086 62.02 142.664 82.2502 141.858C102.48 141.051 124.821 145.098 146.587 142.139C168.352 139.18 190.679 125.157 212.846 124.104C235.012 123.051 268.463 133.869 279.586 135.823V-90.1184L-148 -90.1184L-148 135.823Z" fill="url(#paint0_linear_43_34)"/>
<path d="M-151.692 116.994C-135.435 118.84 -90.6088 129.923 -54.1491 128.072C-17.6894 126.22 31.735 106.171 67.0662 105.884C102.397 105.598 123.033 124.5 157.838 126.352C192.643 128.203 256.218 118.554 275.894 116.994V-90.1186L-151.692 -90.1186V116.994Z" fill="url(#paint1_linear_43_34)"/>
<path d="M-151.692 98.1658C-134.439 101.057 -73.3868 113.676 -48.172 115.512C-22.9572 117.348 -26.5499 112.112 -0.403209 109.181C25.7435 106.25 74.5382 97.4336 108.708 97.9265C142.878 98.4193 176.752 112.098 204.617 112.138C232.481 112.178 264.015 100.495 275.894 98.1658V-90.1184L-151.692 -90.1184V98.1658Z" fill="url(#paint2_linear_43_34)"/>
<path d="M-151.692 79.3373C-132.825 78.5583 -77.2926 74.4638 -38.4927 74.663C0.307193 74.8621 44.1587 79.1305 81.1075 80.5322C118.056 81.9339 150.736 83.2722 183.2 83.0731C215.665 82.8739 260.445 79.96 275.894 79.3373V-90.1183L-151.692 -90.1183V79.3373Z" fill="url(#paint3_linear_43_34)"/>
<path d="M-151.692 60.5088C-141.8 59.1609 -113.606 52.8743 -92.3379 52.4213C-71.0702 51.9682 -51.6592 55.4018 -24.086 57.7907C3.48714 60.1796 48.9067 67.4343 73.1011 66.7546C97.2955 66.0749 99.4811 54.5616 121.08 53.7126C142.679 52.8636 176.893 60.5276 202.695 61.6603C228.498 62.793 263.694 60.7007 275.894 60.5088V-90.1185L-151.692 -90.1185V60.5088Z" fill="url(#paint4_linear_43_34)"/>
<path d="M-151.692 41.6807C-138.206 40.444 -89.8632 35.9194 -70.7762 34.2606C-51.6893 32.6019 -55.6133 28.2085 -37.1702 31.7284C-18.7271 35.2483 20.7285 56.6363 39.8824 55.3802C59.0362 54.124 59.0499 23.6458 77.7528 24.1913C96.4557 24.7367 126.446 53.7176 152.1 58.6528C177.754 63.5881 211.046 56.6312 231.678 53.8025C252.311 50.9738 268.525 43.701 275.894 41.6807V-90.1182L-151.692 -90.1182V41.6807Z" fill="url(#paint5_linear_43_34)"/>
<path d="M-151.692 22.8521C-138.959 25.0897 -105.93 35.2399 -75.2959 36.2778C-44.6618 37.3158 0.244091 32.4144 32.1121 29.0797C63.9802 25.745 89.7421 20.0352 115.912 16.2694C142.083 12.5037 162.47 5.38822 189.134 6.48533C215.797 7.58243 261.434 20.1243 275.894 22.8521V-90.1184L-151.692 -90.1184V22.8521Z" fill="url(#paint6_linear_43_34)"/>
<path d="M-151.692 4.02357C-137.858 6.94728 -90.0121 22.3047 -68.6882 21.5658C-47.3643 20.8269 -42.528 2.88252 -23.7484 -0.409662C-4.96871 -3.70184 20.862 0.767685 43.9897 1.81272C67.1174 2.85776 88.2076 5.19798 115.018 5.86055C141.828 6.52311 178.038 6.09426 204.851 5.7881C231.664 5.48194 264.054 4.31766 275.894 4.02357V-90.1185L-151.692 -90.1185V4.02357Z" fill="url(#paint7_linear_43_34)"/>
</g>
<path d="M170.267 86.8246L155.259 35.2541H169.033L176.814 69.0468H177.242L186.131 35.2541H197.362L206.25 69.1224H206.678L214.485 35.2541H228.233L213.251 86.8246H201.239L191.948 55.5499H191.545L182.253 86.8246H170.267ZM229.837 86.8246V48.1467H242.151V86.8246H229.837ZM236.007 43.6393C234.278 43.6393 232.792 43.0686 231.55 41.927C230.307 40.7687 229.686 39.3754 229.686 37.747C229.686 36.1354 230.307 34.7589 231.55 33.6173C232.792 32.459 234.278 31.8798 236.007 31.8798C237.752 31.8798 239.238 32.459 240.464 33.6173C241.706 34.7589 242.327 36.1354 242.327 37.747C242.327 39.3754 241.706 40.7687 240.464 41.927C239.238 43.0686 237.752 43.6393 236.007 43.6393ZM264.498 87.5548C260.418 87.5548 256.918 86.7154 253.997 85.0367C251.093 83.358 248.86 81.0246 247.299 78.0364C245.738 75.0315 244.957 71.5565 244.957 67.6115C244.957 63.6497 245.738 60.1748 247.299 57.1866C248.877 54.1817 251.118 51.8399 254.022 50.1612C256.943 48.4824 260.427 47.6431 264.472 47.6431C268.048 47.6431 271.162 48.2894 273.814 49.582C276.484 50.8746 278.565 52.7044 280.059 55.0714C281.57 57.4217 282.368 60.1832 282.452 63.356H270.944C270.709 61.3751 270.037 59.8222 268.929 58.6975C267.838 57.5727 266.411 57.0104 264.649 57.0104C263.222 57.0104 261.971 57.4133 260.897 58.2191C259.822 59.0081 258.983 60.1832 258.379 61.7444C257.791 63.2888 257.497 65.2026 257.497 67.4856C257.497 69.7687 257.791 71.6992 258.379 73.2772C258.983 74.8384 259.822 76.0219 260.897 76.8277C261.971 77.6167 263.222 78.0112 264.649 78.0112C265.79 78.0112 266.797 77.7678 267.67 77.281C268.56 76.7942 269.29 76.0807 269.861 75.1406C270.432 74.1837 270.793 73.0254 270.944 71.6657H282.452C282.334 74.8552 281.537 77.6419 280.059 80.0257C278.599 82.4095 276.542 84.2645 273.89 85.5907C271.254 86.9001 268.124 87.5548 264.498 87.5548ZM296.312 76.6767L296.363 61.9962H298.075L308.953 48.1467H322.903L306.737 67.9892H303.489L296.312 76.6767ZM285.208 86.8246V35.2541H297.521V86.8246H285.208ZM309.23 86.8246L299.107 70.7591L307.216 62.0214L323.457 86.8246H309.23ZM340.252 87.5548C336.206 87.5548 332.714 86.7574 329.776 85.1626C326.856 83.551 324.606 81.2596 323.028 78.2882C321.467 75.3001 320.686 71.7496 320.686 67.6367C320.686 63.6413 321.475 60.1496 323.053 57.1615C324.631 54.1565 326.856 51.8231 329.726 50.1612C332.597 48.4824 335.979 47.6431 339.874 47.6431C342.627 47.6431 345.145 48.0712 347.428 48.9273C349.711 49.7835 351.684 51.0509 353.346 52.7296C355.008 54.4083 356.3 56.4816 357.224 58.9493C358.147 61.4002 358.609 64.2121 358.609 67.3849V70.457H324.992V63.3056H347.151C347.135 61.9962 346.824 60.8295 346.22 59.8055C345.615 58.7814 344.784 57.984 343.727 57.4133C342.686 56.8257 341.486 56.5319 340.126 56.5319C338.749 56.5319 337.515 56.8425 336.424 57.4636C335.333 58.068 334.469 58.8989 333.831 59.9565C333.193 60.9973 332.857 62.1809 332.823 63.507V70.7843C332.823 72.3623 333.134 73.7473 333.755 74.9392C334.376 76.1143 335.258 77.0292 336.399 77.6839C337.541 78.3386 338.9 78.6659 340.478 78.6659C341.57 78.6659 342.56 78.5149 343.45 78.2127C344.339 77.9105 345.103 77.4657 345.741 76.8781C346.379 76.2905 346.858 75.5687 347.176 74.7125L358.483 75.0399C358.013 77.5748 356.98 79.7823 355.385 81.6625C353.807 83.5259 351.734 84.978 349.166 86.0188C346.597 87.0428 343.626 87.5548 340.252 87.5548ZM375.479 87.3785C372.625 87.3785 370.031 86.6399 367.698 85.1626C365.364 83.6853 363.501 81.4694 362.108 78.5149C360.714 75.5603 360.018 71.8923 360.018 67.5108C360.018 62.9615 360.739 59.2179 362.183 56.2801C363.627 53.3424 365.515 51.1684 367.849 49.7583C370.199 48.3481 372.725 47.6431 375.428 47.6431C377.459 47.6431 379.197 47.9956 380.641 48.7007C382.084 49.389 383.276 50.2787 384.216 51.3699C385.156 52.461 385.87 53.5942 386.357 54.7693H386.609V35.2541H398.922V86.8246H386.734V80.5545H386.357C385.836 81.7464 385.098 82.8628 384.141 83.9036C383.184 84.9444 381.984 85.7837 380.54 86.4217C379.113 87.0596 377.426 87.3785 375.479 87.3785ZM379.759 77.7846C381.253 77.7846 382.529 77.3649 383.587 76.5256C384.644 75.6694 385.459 74.4691 386.029 72.9247C386.6 71.3803 386.886 69.5672 386.886 67.4856C386.886 65.3704 386.6 63.549 386.029 62.0214C385.475 60.4937 384.661 59.3186 383.587 58.496C382.529 57.6735 381.253 57.2622 379.759 57.2622C378.232 57.2622 376.939 57.6819 375.881 58.5212C374.824 59.3606 374.018 60.5441 373.464 62.0717C372.927 63.5994 372.658 65.404 372.658 67.4856C372.658 69.5672 372.935 71.3803 373.489 72.9247C374.043 74.4691 374.841 75.6694 375.881 76.5256C376.939 77.3649 378.232 77.7846 379.759 77.7846ZM403.164 86.8246V35.2541H424.668C428.529 35.2541 431.761 35.7997 434.363 36.8908C436.982 37.982 438.946 39.5096 440.255 41.4738C441.581 43.4379 442.244 45.7125 442.244 48.2978C442.244 50.2619 441.833 52.0162 441.011 53.5606C440.188 55.0882 439.055 56.3557 437.611 57.3629C436.167 58.3701 434.497 59.0752 432.6 59.4781V59.9817C434.682 60.0824 436.604 60.6448 438.367 61.6688C440.146 62.6929 441.573 64.1198 442.647 65.9496C443.722 67.7626 444.259 69.9114 444.259 72.3959C444.259 75.1658 443.554 77.6419 442.144 79.8243C440.734 81.9898 438.694 83.7021 436.025 84.9612C433.356 86.2034 430.116 86.8246 426.305 86.8246H403.164ZM415.628 76.7774H423.334C426.036 76.7774 428.026 76.2654 429.301 75.2413C430.594 74.2173 431.24 72.7904 431.24 70.9606C431.24 69.6344 430.93 68.4929 430.309 67.536C429.688 66.5623 428.806 65.8153 427.665 65.2949C426.523 64.7577 425.155 64.4891 423.56 64.4891H415.628V76.7774ZM415.628 56.4564H422.528C423.888 56.4564 425.096 56.2298 426.154 55.7765C427.211 55.3233 428.034 54.6686 428.622 53.8124C429.226 52.9562 429.528 51.9238 429.528 50.7151C429.528 48.9861 428.915 47.6263 427.69 46.6358C426.464 45.6454 424.811 45.1502 422.729 45.1502H415.628V56.4564ZM457.61 87.4793C455.142 87.4793 452.951 87.068 451.038 86.2454C449.141 85.406 447.638 84.147 446.53 82.4683C445.439 80.7727 444.893 78.6492 444.893 76.0975C444.893 73.9487 445.271 72.1357 446.027 70.6584C446.782 69.1811 447.823 67.9809 449.149 67.0576C450.475 66.1343 452.003 65.4376 453.732 64.9675C455.461 64.4807 457.308 64.1534 459.272 63.9855C461.471 63.784 463.242 63.5742 464.585 63.356C465.928 63.1209 466.902 62.7936 467.506 62.3739C468.127 61.9374 468.438 61.3247 468.438 60.5357V60.4098C468.438 59.1172 467.993 58.1183 467.103 57.4133C466.213 56.7082 465.013 56.3557 463.502 56.3557C461.874 56.3557 460.564 56.7082 459.574 57.4133C458.583 58.1183 457.954 59.092 457.685 60.3343L446.329 59.9314C446.665 57.5811 447.529 55.4827 448.922 53.6361C450.333 51.7727 452.263 50.3123 454.714 49.2547C457.182 48.1803 460.145 47.6431 463.603 47.6431C466.071 47.6431 468.345 47.9369 470.427 48.5244C472.509 49.0952 474.322 49.9345 475.866 51.0425C477.41 52.1337 478.602 53.4767 479.442 55.0714C480.298 56.6662 480.726 58.4877 480.726 60.5357V86.8246H469.143V81.4358H468.841C468.152 82.7452 467.271 83.8532 466.197 84.7597C465.139 85.6662 463.888 86.3461 462.445 86.7994C461.018 87.2526 459.406 87.4793 457.61 87.4793ZM461.412 79.4214C462.738 79.4214 463.93 79.1528 464.988 78.6156C466.062 78.0784 466.918 77.3398 467.556 76.3997C468.194 75.4428 468.513 74.3348 468.513 73.0758V69.3994C468.161 69.584 467.733 69.7519 467.229 69.903C466.742 70.0541 466.205 70.1968 465.617 70.3311C465.03 70.4654 464.425 70.5829 463.804 70.6836C463.183 70.7843 462.587 70.8767 462.016 70.9606C460.858 71.1453 459.868 71.4306 459.045 71.8167C458.239 72.2028 457.618 72.7065 457.182 73.3276C456.762 73.9319 456.552 74.6538 456.552 75.4932C456.552 76.769 457.005 77.7426 457.912 78.4141C458.835 79.0856 460.002 79.4214 461.412 79.4214ZM502.764 87.5548C498.685 87.5548 495.185 86.7154 492.264 85.0367C489.36 83.358 487.127 81.0246 485.566 78.0364C484.004 75.0315 483.224 71.5565 483.224 67.6115C483.224 63.6497 484.004 60.1748 485.566 57.1866C487.144 54.1817 489.385 51.8399 492.289 50.1612C495.21 48.4824 498.693 47.6431 502.739 47.6431C506.315 47.6431 509.429 48.2894 512.081 49.582C514.75 50.8746 516.832 52.7044 518.326 55.0714C519.837 57.4217 520.634 60.1832 520.718 63.356H509.211C508.976 61.3751 508.304 59.8222 507.196 58.6975C506.105 57.5727 504.678 57.0104 502.915 57.0104C501.488 57.0104 500.238 57.4133 499.163 58.2191C498.089 59.0081 497.25 60.1832 496.645 61.7444C496.058 63.2888 495.764 65.2026 495.764 67.4856C495.764 69.7687 496.058 71.6992 496.645 73.2772C497.25 74.8384 498.089 76.0219 499.163 76.8277C500.238 77.6167 501.488 78.0112 502.915 78.0112C504.057 78.0112 505.064 77.7678 505.937 77.281C506.827 76.7942 507.557 76.0807 508.128 75.1406C508.699 74.1837 509.059 73.0254 509.211 71.6657H520.718C520.601 74.8552 519.803 77.6419 518.326 80.0257C516.866 82.4095 514.809 84.2645 512.157 85.5907C509.521 86.9001 506.39 87.5548 502.764 87.5548ZM534.579 76.6767L534.629 61.9962H536.342L547.22 48.1467H561.17L545.004 67.9892H541.756L534.579 76.6767ZM523.474 86.8246V35.2541H535.788V86.8246H523.474ZM547.497 86.8246L537.374 70.7591L545.482 62.0214L561.724 86.8246H547.497ZM578.468 102.135C574.792 102.135 571.644 101.623 569.025 100.599C566.406 99.5745 564.35 98.1727 562.856 96.3933C561.362 94.6138 560.464 92.5994 560.162 90.3499L571.82 89.6952C572.039 90.4842 572.441 91.1725 573.029 91.76C573.633 92.3476 574.414 92.8008 575.371 93.1198C576.344 93.4387 577.486 93.5982 578.795 93.5982C580.86 93.5982 582.564 93.0946 583.907 92.0874C585.267 91.0969 585.947 89.3594 585.947 86.8749V80.0761H585.519C585.032 81.268 584.293 82.334 583.303 83.274C582.312 84.2141 581.078 84.9528 579.601 85.49C578.141 86.0272 576.462 86.2958 574.565 86.2958C571.745 86.2958 569.16 85.6411 566.809 84.3316C564.476 83.0055 562.604 80.9574 561.194 78.1875C559.801 75.4008 559.104 71.8167 559.104 67.4353C559.104 62.9195 559.826 59.2011 561.27 56.2801C562.713 53.3424 564.602 51.1684 566.935 49.7583C569.285 48.3481 571.812 47.6431 574.515 47.6431C576.546 47.6431 578.283 47.9956 579.727 48.7007C581.188 49.389 582.388 50.2787 583.328 51.3699C584.268 52.461 584.982 53.5942 585.468 54.7693H585.821V48.1467H598.084V86.9756C598.084 90.2492 597.261 93.0107 595.616 95.2602C593.971 97.5096 591.671 99.2136 588.717 100.372C585.762 101.547 582.346 102.135 578.468 102.135ZM578.846 77.3314C580.34 77.3314 581.616 76.9369 582.673 76.1479C583.731 75.3589 584.545 74.2257 585.116 72.7484C585.687 71.2712 585.972 69.5001 585.972 67.4353C585.972 65.3369 585.687 63.5322 585.116 62.0214C584.562 60.4937 583.748 59.3186 582.673 58.496C581.616 57.6735 580.34 57.2622 578.846 57.2622C577.318 57.2622 576.026 57.6819 574.968 58.5212C573.91 59.3606 573.105 60.5441 572.551 62.0717C572.013 63.5826 571.745 65.3704 571.745 67.4353C571.745 69.5001 572.022 71.2712 572.576 72.7484C573.13 74.2257 573.927 75.3589 574.968 76.1479C576.026 76.9369 577.318 77.3314 578.846 77.3314ZM602.389 86.8246V48.1467H614.35V55.1973H614.752C615.458 52.6457 616.607 50.7487 618.202 49.5065C619.797 48.2474 621.652 47.6179 623.767 47.6179C624.338 47.6179 624.926 47.6599 625.53 47.7438C626.134 47.811 626.697 47.9201 627.217 48.0712V58.773C626.629 58.5716 625.857 58.4121 624.9 58.2946C623.96 58.1771 623.121 58.1183 622.382 58.1183C620.922 58.1183 619.604 58.4457 618.429 59.1004C617.271 59.7383 616.356 60.6364 615.684 61.7947C615.029 62.9363 614.702 64.2793 614.702 65.8237V86.8246H602.389ZM644.735 87.5548C640.673 87.5548 637.181 86.7238 634.26 85.0619C631.356 83.3832 629.115 81.0497 627.537 78.0616C625.976 75.0567 625.195 71.5733 625.195 67.6115C625.195 63.6329 625.976 60.1496 627.537 57.1615C629.115 54.1565 631.356 51.8231 634.26 50.1612C637.181 48.4824 640.673 47.6431 644.735 47.6431C648.798 47.6431 652.281 48.4824 655.185 50.1612C658.106 51.8231 660.348 54.1565 661.909 57.1615C663.487 60.1496 664.276 63.6329 664.276 67.6115C664.276 71.5733 663.487 75.0567 661.909 78.0616C660.348 81.0497 658.106 83.3832 655.185 85.0619C652.281 86.7238 648.798 87.5548 644.735 87.5548ZM644.811 78.263C646.288 78.263 647.539 77.8098 648.563 76.9033C649.587 75.9968 650.367 74.7377 650.905 73.1261C651.459 71.5146 651.736 69.6512 651.736 67.536C651.736 65.3872 651.459 63.507 650.905 61.8955C650.367 60.2839 649.587 59.0248 648.563 58.1183C647.539 57.2118 646.288 56.7586 644.811 56.7586C643.283 56.7586 641.991 57.2118 640.933 58.1183C639.892 59.0248 639.095 60.2839 638.541 61.8955C638.004 63.507 637.735 65.3872 637.735 67.536C637.735 69.6512 638.004 71.5146 638.541 73.1261C639.095 74.7377 639.892 75.9968 640.933 76.9033C641.991 77.8098 643.283 78.263 644.811 78.263ZM691.992 70.1296V48.1467H704.281V86.8246H692.546V79.6228H692.143C691.287 81.9898 689.827 83.87 687.762 85.2633C685.714 86.6399 683.238 87.3282 680.334 87.3282C677.698 87.3282 675.381 86.7238 673.384 85.5151C671.386 84.3065 669.833 82.6193 668.725 80.4538C667.617 78.2714 667.055 75.7198 667.038 72.7988V48.1467H679.352V70.3814C679.368 72.4798 679.922 74.1334 681.013 75.3421C682.105 76.5507 683.59 77.1551 685.47 77.1551C686.696 77.1551 687.796 76.8865 688.769 76.3493C689.76 75.7953 690.54 74.9979 691.111 73.9571C691.699 72.8995 691.992 71.6237 691.992 70.1296ZM720.886 64.7661V86.8246H708.573V48.1467H720.282V55.2477H720.71C721.566 52.8807 723.027 51.0257 725.091 49.6827C727.156 48.323 729.616 47.6431 732.469 47.6431C735.189 47.6431 737.548 48.2558 739.545 49.4813C741.56 50.69 743.121 52.3855 744.229 54.5678C745.354 56.7334 745.908 59.2683 745.891 62.1725V86.8246H733.577V64.5898C733.594 62.4411 733.049 60.7623 731.941 59.5536C730.849 58.345 729.33 57.7406 727.383 57.7406C726.09 57.7406 724.949 58.026 723.958 58.5968C722.985 59.1507 722.229 59.9481 721.692 60.989C721.172 62.0298 720.903 63.2888 720.886 64.7661ZM764.095 87.3785C761.241 87.3785 758.648 86.6399 756.314 85.1626C753.981 83.6853 752.118 81.4694 750.724 78.5149C749.331 75.5603 748.634 71.8923 748.634 67.5108C748.634 62.9615 749.356 59.2179 750.8 56.2801C752.244 53.3424 754.132 51.1684 756.466 49.7583C758.816 48.3481 761.342 47.6431 764.045 47.6431C766.076 47.6431 767.814 47.9956 769.257 48.7007C770.701 49.389 771.893 50.2787 772.833 51.3699C773.773 52.461 774.487 53.5942 774.973 54.7693H775.225V35.2541H787.539V86.8246H775.351V80.5545H774.973C774.453 81.7464 773.714 82.8628 772.758 83.9036C771.801 84.9444 770.6 85.7837 769.157 86.4217C767.73 87.0596 766.043 87.3785 764.095 87.3785ZM768.376 77.7846C769.87 77.7846 771.146 77.3649 772.204 76.5256C773.261 75.6694 774.075 74.4691 774.646 72.9247C775.217 71.3803 775.502 69.5672 775.502 67.4856C775.502 65.3704 775.217 63.549 774.646 62.0214C774.092 60.4937 773.278 59.3186 772.204 58.496C771.146 57.6735 769.87 57.2622 768.376 57.2622C766.848 57.2622 765.556 57.6819 764.498 58.5212C763.441 59.3606 762.635 60.5441 762.081 62.0717C761.544 63.5994 761.275 65.404 761.275 67.4856C761.275 69.5672 761.552 71.3803 762.106 72.9247C762.66 74.4691 763.457 75.6694 764.498 76.5256C765.556 77.3649 766.848 77.7846 768.376 77.7846ZM825.548 59.9565L814.242 60.2587C814.124 59.4529 813.805 58.7395 813.285 58.1183C812.765 57.4804 812.085 56.9852 811.245 56.6327C810.423 56.2633 809.466 56.0787 808.375 56.0787C806.948 56.0787 805.731 56.3641 804.723 56.9348C803.733 57.5056 803.246 58.2778 803.263 59.2515C803.246 60.0069 803.548 60.6616 804.169 61.2156C804.807 61.7696 805.941 62.2144 807.569 62.5502L815.022 63.9603C818.884 64.6989 821.754 65.9244 823.634 67.6367C825.531 69.349 826.488 71.6153 826.505 74.4356C826.488 77.0879 825.699 79.3962 824.138 81.3603C822.594 83.3244 820.478 84.8521 817.792 85.9432C815.106 87.0176 812.034 87.5548 808.576 87.5548C803.053 87.5548 798.697 86.4217 795.507 84.1554C792.334 81.8723 790.521 78.817 790.068 74.9895L802.231 74.6874C802.499 76.0975 803.196 77.1719 804.321 77.9105C805.445 78.6492 806.881 79.0185 808.627 79.0185C810.205 79.0185 811.489 78.7247 812.479 78.1371C813.47 77.5496 813.973 76.769 813.99 75.7953C813.973 74.9224 813.587 74.2257 812.832 73.7053C812.076 73.1681 810.893 72.7484 809.281 72.4463L802.533 71.162C798.655 70.457 795.767 69.156 793.87 67.259C791.974 65.3453 791.033 62.9111 791.05 59.9565C791.033 57.3713 791.722 55.1638 793.115 53.334C794.508 51.4874 796.489 50.0772 799.058 49.1036C801.626 48.1299 804.656 47.6431 808.148 47.6431C813.386 47.6431 817.515 48.7426 820.537 50.9418C823.559 53.1241 825.229 56.129 825.548 59.9565Z" fill="white"/>
</g>
<defs>
<linearGradient id="paint0_linear_43_34" x1="-151.692" y1="123.402" x2="266.583" y2="198.788" gradientUnits="userSpaceOnUse">
<stop stop-color="#0301F7"/>
</linearGradient>
<linearGradient id="paint1_linear_43_34" x1="-151.692" y1="106.44" x2="264.228" y2="187.87" gradientUnits="userSpaceOnUse">
<stop stop-color="#451DFE"/>
<stop offset="0.0833333" stop-color="#201DFE"/>
</linearGradient>
<linearGradient id="paint2_linear_43_34" x1="-151.692" y1="95.2918" x2="262.334" y2="181.225" gradientUnits="userSpaceOnUse">
<stop stop-color="#6241FE"/>
<stop offset="0.166667" stop-color="#4241FE"/>
</linearGradient>
<linearGradient id="paint3_linear_43_34" x1="-151.692" y1="65.7717" x2="255.364" y2="166.257" gradientUnits="userSpaceOnUse">
<stop stop-color="#7F64FE"/>
<stop offset="0.25" stop-color="#6564FE"/>
</linearGradient>
<linearGradient id="paint4_linear_43_34" x1="-151.692" y1="51.1075" x2="250.32" y2="160.652" gradientUnits="userSpaceOnUse">
<stop stop-color="#9C88FF"/>
<stop offset="0.333333" stop-color="#8888FF"/>
</linearGradient>
<linearGradient id="paint5_linear_43_34" x1="-151.692" y1="45.3255" x2="247.912" y2="158.862" gradientUnits="userSpaceOnUse">
<stop stop-color="#BAABFF"/>
<stop offset="0.416667" stop-color="#ACABFF"/>
</linearGradient>
<linearGradient id="paint6_linear_43_34" x1="-151.692" y1="23.7656" x2="235.912" y2="154.742" gradientUnits="userSpaceOnUse">
<stop stop-color="#D7CEFF"/>
<stop offset="0.5" stop-color="#CFCEFF"/>
</linearGradient>
<linearGradient id="paint7_linear_43_34" x1="-151.692" y1="10.4206" x2="224.984" y2="154.599" gradientUnits="userSpaceOnUse">
<stop stop-color="#F4F2FF"/>
<stop offset="0.583333" stop-color="#F2F2FF"/>
</linearGradient>
<clipPath id="clip0_43_34">
<rect width="829" height="121.825" fill="white"/>
</clipPath>
<clipPath id="clip1_43_34">
<rect y="121.825" width="121.825" height="124" rx="60.9123" transform="rotate(-90 0 121.825)" fill="white"/>
</clipPath>
</defs>
</svg>
